<svg width="40" height="40" viewBox="0 0 40 40" fill="none" xmlns="http://www.w3.org/2000/svg">
<path fill-rule="evenodd" clip-rule="evenodd" d="M20 40C31.0457 40 40 31.0457 40 20C40 8.95431 31.0457 0 20 0C8.95431 0 0 8.95431 0 20C0 31.0457 8.95431 40 20 40Z" fill="url(#paint0_linear_741_214)"/>
<path fill-rule="evenodd" clip-rule="evenodd" d="M16.3333 29.1668C15.6854 29.1668 15.7955 28.9222 15.572 28.3052L13.6667 22.0345L28.3333 13.3335" fill="#C8DAEA"/>
<path fill-rule="evenodd" clip-rule="evenodd" d="M16.3333 29.1667C16.8333 29.1667 17.0543 28.938 17.3333 28.6667L20 26.0737L16.6737 24.0679" fill="#A9C9DD"/>
<path fill-rule="evenodd" clip-rule="evenodd" d="M16.6733 24.0681L24.7333 30.0229C25.6531 30.5304 26.3169 30.2676 26.546 29.169L29.8268 13.7085C30.1627 12.3618 29.3135 11.751 28.4336 12.1505L9.1686 19.579C7.85358 20.1064 7.86125 20.8401 8.9289 21.167L13.8727 22.71L25.3182 15.4892C25.8585 15.1615 26.3544 15.3377 25.9474 15.6989" fill="url(#paint1_linear_741_214)"/>
<defs>
<linearGradient id="paint0_linear_741_214" x1="15.002" y1="1.668" x2="5.002" y2="25" gradientUnits="userSpaceOnUse">
<stop stop-color="#37AEE2"/>
<stop offset="1" stop-color="#1E96C8"/>
</linearGradient>
<linearGradient id="paint1_linear_741_214" x1="17.4963" y1="21.2283" x2="19.6333" y2="28.1407" gradientUnits="userSpaceOnUse">
<stop stop-color="#EFF7FC"/>
<stop offset="1" stop-color="white"/>
</linearGradient>
</defs>
</svg>
