<svg width="40" height="40" viewBox="0 0 40 40" fill="none" xmlns="http://www.w3.org/2000/svg">
<path fill-rule="evenodd" clip-rule="evenodd" d="M20 40C31.0457 40 40 31.0457 40 20C40 8.95431 31.0457 0 20 0C8.95431 0 0 8.95431 0 20C0 31.0457 8.95431 40 20 40Z" fill="#25D366"/>
<path fill-rule="evenodd" clip-rule="evenodd" d="M20.6592 31.1273H20.6543C18.6639 31.1266 16.7082 30.6272 14.9711 29.6797L8.66666 31.3335L10.3538 25.1709C9.31311 23.3673 8.76548 21.3214 8.76637 19.2254C8.76898 12.6682 14.104 7.3335 20.6591 7.3335C23.8405 7.33487 26.8265 8.57338 29.0718 10.8213C31.3172 13.0692 32.553 16.0571 32.5518 19.2347C32.5492 25.7904 27.2162 31.1246 20.6592 31.1273ZM15.2632 27.527L15.6242 27.7412C17.1418 28.6418 18.8815 29.1184 20.6552 29.119H20.6592C26.1074 29.119 30.5416 24.6847 30.5438 19.2343C30.5448 16.5931 29.5176 14.1097 27.6514 12.2412C25.7852 10.3728 23.3033 9.34336 20.6631 9.34245C15.2108 9.34245 10.7765 13.7763 10.7743 19.2263C10.7736 21.0941 11.2961 22.913 12.2856 24.4868L12.5206 24.8608L11.5221 28.5084L15.2632 27.527ZM26.6506 22.0626C26.5764 21.9386 26.3783 21.8642 26.0812 21.7154C25.784 21.5667 24.3231 20.8479 24.0506 20.7487C23.7783 20.6495 23.5801 20.6 23.382 20.8974C23.184 21.1948 22.6145 21.8642 22.4411 22.0626C22.2678 22.2608 22.0944 22.2857 21.7974 22.1369C21.5002 21.9882 20.5427 21.6744 19.4077 20.662C18.5243 19.874 17.9279 18.901 17.7546 18.6035C17.5813 18.306 17.7361 18.1452 17.8849 17.997C18.0186 17.8639 18.1821 17.6499 18.3306 17.4764C18.4792 17.303 18.5287 17.1789 18.6278 16.9807C18.7268 16.7823 18.6773 16.6089 18.603 16.4601C18.5287 16.3114 17.9344 14.8487 17.6868 14.2537C17.4456 13.6743 17.2006 13.7528 17.0182 13.7436C16.8451 13.7349 16.6468 13.7331 16.4487 13.7331C16.2506 13.7331 15.9287 13.8074 15.6563 14.1049C15.3839 14.4024 14.6163 15.1214 14.6163 16.5839C14.6163 18.0466 15.681 19.4596 15.8296 19.6579C15.9782 19.8563 17.925 22.8577 20.9059 24.1448C21.6149 24.451 22.1684 24.6339 22.6 24.7708C23.3118 24.997 23.9596 24.9651 24.4716 24.8886C25.0425 24.8033 26.2297 24.1698 26.4774 23.4757C26.7249 22.7814 26.7249 22.1865 26.6506 22.0626Z" fill="#FDFDFD"/>
</svg>
