<svg width="20" height="24" viewBox="0 0 20 24" fill="none" xmlns="http://www.w3.org/2000/svg">
<g clip-path="url(#clip0_741_266)">
<g filter="url(#filter0_f_741_266)">
<path d="M10.5208 11.4561V9.58105C10.5208 9.06355 10.9408 8.64355 11.4583 8.64355H12.3958V6.2998H10.5208C8.96741 6.2998 7.70833 7.55887 7.70833 9.1123V11.4561H5.83333V13.7998H7.70833V21.2998H10.5208V13.7998H12.3958L13.3333 11.4561H10.5208Z" fill="black"/>
</g>
</g>
<path d="M19.5 1.90269L17.7552 2.45329V2.2896L19.5 2.84019L18.9922 3.34614L17.3125 2.78811L17.4818 2.73603L17.4948 3.80001H16.5052L16.5182 2.73603L16.6875 2.78811L15.0208 3.34614L14.5 2.84019L16.2578 2.2896V2.45329L14.5 1.90269L15.0208 1.3893L16.6875 1.95478L16.5182 2.0143L16.5052 0.942871H17.4948L17.4818 2.0143L17.3125 1.95478L18.9922 1.3893L19.5 1.90269Z" fill="black" fill-opacity="0.3"/>
<defs>
<filter id="filter0_f_741_266" x="2.33333" y="2.7998" width="14.5" height="22" filterUnits="userSpaceOnUse" color-interpolation-filters="sRGB">
<feFlood flood-opacity="0" result="BackgroundImageFix"/>
<feBlend mode="normal" in="SourceGraphic" in2="BackgroundImageFix" result="shape"/>
<feGaussianBlur stdDeviation="1.75" result="effect1_foregroundBlur_741_266"/>
</filter>
<clipPath id="clip0_741_266">
<rect width="20" height="20" fill="white" transform="translate(0 3.7998)"/>
</clipPath>
</defs>
</svg>
