<svg width="41" height="50" viewBox="0 0 41 50" fill="none" xmlns="http://www.w3.org/2000/svg">
<g filter="url(#filter0_f_479_1934)">
<path d="M21.5417 25.3125V21.5625C21.5417 20.5275 22.3817 19.6875 23.4167 19.6875H25.2917V15H21.5417C18.4349 15 15.9167 17.5181 15.9167 20.625V25.3125H12.1667V30H15.9167V45H21.5417V30H25.2917L27.1667 25.3125H21.5417Z" fill="black"/>
</g>
<path d="M39.5 3.35938L36.0104 5.28646V4.71354L39.5 6.64063L38.4844 8.41146L35.125 6.45833L35.4635 6.27604L35.4896 10H33.5104L33.5365 6.27604L33.875 6.45833L30.5417 8.41146L29.5 6.64063L33.0156 4.71354V5.28646L29.5 3.35938L30.5417 1.5625L33.875 3.54167L33.5365 3.75L33.5104 0H35.4896L35.4635 3.75L35.125 3.54167L38.4844 1.5625L39.5 3.35938Z" fill="black" fill-opacity="0.3"/>
<defs>
<filter id="filter0_f_479_1934" x="7.16669" y="10" width="25" height="40" filterUnits="userSpaceOnUse" color-interpolation-filters="sRGB">
<feFlood flood-opacity="0" result="BackgroundImageFix"/>
<feBlend mode="normal" in="SourceGraphic" in2="BackgroundImageFix" result="shape"/>
<feGaussianBlur stdDeviation="2.5" result="effect1_foregroundBlur_479_1934"/>
</filter>
</defs>
</svg>
