<svg width="45" height="52" viewBox="0 0 45 52" fill="none" xmlns="http://www.w3.org/2000/svg">
<g filter="url(#filter0_f_479_1907)">
<path d="M28.75 13.3333H16.25C10.4979 13.3333 5.83331 17.9978 5.83331 23.7499V36.2499C5.83331 42.0021 10.4979 46.6666 16.25 46.6666H28.75C34.5021 46.6666 39.1666 42.0021 39.1666 36.2499V23.7499C39.1666 17.9978 34.5021 13.3333 28.75 13.3333ZM36.0416 36.2499C36.0416 40.2708 32.7708 43.5416 28.75 43.5416H16.25C12.2291 43.5416 8.95831 40.2708 8.95831 36.2499V23.7499C8.95831 19.7291 12.2291 16.4583 16.25 16.4583H28.75C32.7708 16.4583 36.0416 19.7291 36.0416 23.7499V36.2499Z" fill="black"/>
<path d="M22.5 21.6667C17.8979 21.6667 14.1667 25.398 14.1667 30.0001C14.1667 34.6022 17.8979 38.3334 22.5 38.3334C27.1022 38.3334 30.8334 34.6022 30.8334 30.0001C30.8334 25.398 27.1022 21.6667 22.5 21.6667ZM22.5 35.2084C19.6292 35.2084 17.2917 32.8709 17.2917 30.0001C17.2917 27.1272 19.6292 24.7917 22.5 24.7917C25.3709 24.7917 27.7084 27.1272 27.7084 30.0001C27.7084 32.8709 25.3709 35.2084 22.5 35.2084Z" fill="black"/>
<path d="M31.4587 22.1525C32.072 22.1525 32.5692 21.6553 32.5692 21.0421C32.5692 20.4288 32.072 19.9316 31.4587 19.9316C30.8455 19.9316 30.3483 20.4288 30.3483 21.0421C30.3483 21.6553 30.8455 22.1525 31.4587 22.1525Z" fill="black"/>
</g>
<path d="M41.5 3.35938L38.0104 5.28646V4.71354L41.5 6.64063L40.4844 8.41146L37.125 6.45833L37.4635 6.27604L37.4896 10H35.5104L35.5365 6.27604L35.875 6.45833L32.5417 8.41146L31.5 6.64063L35.0156 4.71354V5.28646L31.5 3.35938L32.5417 1.5625L35.875 3.54167L35.5365 3.75L35.5104 0H37.4896L37.4635 3.75L37.125 3.54167L40.4844 1.5625L41.5 3.35938Z" fill="black" fill-opacity="0.3"/>
<defs>
<filter id="filter0_f_479_1907" x="-2.5" y="5" width="50" height="50" filterUnits="userSpaceOnUse" color-interpolation-filters="sRGB">
<feFlood flood-opacity="0" result="BackgroundImageFix"/>
<feBlend mode="normal" in="SourceGraphic" in2="BackgroundImageFix" result="shape"/>
<feGaussianBlur stdDeviation="2.5" result="effect1_foregroundBlur_479_1907"/>
</filter>
</defs>
</svg>
