<svg width="24" height="26" viewBox="0 0 24 26" fill="none" xmlns="http://www.w3.org/2000/svg">
<g filter="url(#filter0_f_741_239)">
<path d="M15.125 5.46631H8.875C5.99896 5.46631 3.66666 7.7986 3.66666 10.6746V16.9246C3.66666 19.8007 5.99896 22.133 8.875 22.133H15.125C18.0011 22.133 20.3333 19.8007 20.3333 16.9246V10.6746C20.3333 7.7986 18.0011 5.46631 15.125 5.46631ZM18.7708 16.9246C18.7708 18.9351 17.1354 20.5705 15.125 20.5705H8.875C6.86458 20.5705 5.22916 18.9351 5.22916 16.9246V10.6746C5.22916 8.66423 6.86458 7.02881 8.875 7.02881H15.125C17.1354 7.02881 18.7708 8.66423 18.7708 10.6746V16.9246Z" fill="black"/>
<path d="M12 9.6333C9.69896 9.6333 7.83334 11.4989 7.83334 13.8C7.83334 16.1011 9.69896 17.9666 12 17.9666C14.3011 17.9666 16.1667 16.1011 16.1667 13.8C16.1667 11.4989 14.3011 9.6333 12 9.6333ZM12 16.4041C10.5646 16.4041 9.39584 15.2354 9.39584 13.8C9.39584 12.3636 10.5646 11.1958 12 11.1958C13.4354 11.1958 14.6042 12.3636 14.6042 13.8C14.6042 15.2354 13.4354 16.4041 12 16.4041Z" fill="black"/>
<path d="M16.4793 9.87604C16.786 9.87604 17.0346 9.62747 17.0346 9.32083C17.0346 9.0142 16.786 8.76562 16.4793 8.76562C16.1727 8.76562 15.9242 9.0142 15.9242 9.32083C15.9242 9.62747 16.1727 9.87604 16.4793 9.87604Z" fill="black"/>
</g>
<path d="M21.5 1.90269L19.7552 2.45329V2.2896L21.5 2.84019L20.9922 3.34614L19.3125 2.78811L19.4818 2.73603L19.4948 3.80001H18.5052L18.5182 2.73603L18.6875 2.78811L17.0208 3.34614L16.5 2.84019L18.2578 2.2896V2.45329L16.5 1.90269L17.0208 1.3893L18.6875 1.95478L18.5182 2.0143L18.5052 0.942871H19.4948L19.4818 2.0143L19.3125 1.95478L20.9922 1.3893L21.5 1.90269Z" fill="black" fill-opacity="0.3"/>
<defs>
<filter id="filter0_f_741_239" x="-1.5" y="0.299805" width="27" height="27" filterUnits="userSpaceOnUse" color-interpolation-filters="sRGB">
<feFlood flood-opacity="0" result="BackgroundImageFix"/>
<feBlend mode="normal" in="SourceGraphic" in2="BackgroundImageFix" result="shape"/>
<feGaussianBlur stdDeviation="1.75" result="effect1_foregroundBlur_741_239"/>
</filter>
</defs>
</svg>
