<svg width="20" height="21" viewBox="0 0 20 21" fill="none" xmlns="http://www.w3.org/2000/svg">
<path d="M16.2939 3.29726C16.084 3.30702 15.8862 3.36806 15.7104 3.43642H15.708C15.5298 3.50722 14.6826 3.86366 13.396 4.40321C12.1094 4.94521 10.4394 5.64833 8.78173 6.34657C5.47119 7.74062 2.21679 9.11269 2.21679 9.11269L2.25585 9.09804C2.25585 9.09804 2.03124 9.17128 1.79687 9.33241C1.67724 9.41054 1.5454 9.51796 1.43066 9.68642C1.31591 9.85487 1.22314 10.1137 1.25732 10.3798C1.31347 10.8314 1.60644 11.1024 1.8164 11.2514C2.0288 11.4027 2.23144 11.4735 2.23144 11.4735H2.23632L5.28808 12.5014C5.4248 12.9408 6.21826 15.5482 6.40869 16.1488C6.52099 16.5077 6.63085 16.7323 6.76757 16.9032C6.83349 16.9911 6.91162 17.0643 7.00439 17.1229C7.04101 17.1449 7.08007 17.162 7.11914 17.1767C7.13134 17.184 7.14355 17.1864 7.1582 17.1889L7.12646 17.1815C7.13623 17.184 7.14355 17.1913 7.15087 17.1937C7.17529 17.2011 7.19238 17.2035 7.22412 17.2084C7.70751 17.3549 8.0957 17.0546 8.0957 17.0546L8.11767 17.0375L9.91943 15.3969L12.9394 17.7138L13.0078 17.7431C13.6377 18.0189 14.2749 17.8651 14.6118 17.5941C14.9512 17.3207 15.083 16.9716 15.083 16.9716L15.105 16.9154L17.439 4.95986C17.5049 4.66445 17.522 4.38857 17.4487 4.12001C17.3755 3.85146 17.1875 3.59999 16.9604 3.46571C16.731 3.329 16.5039 3.28749 16.2939 3.29726ZM16.2305 4.579C16.228 4.61806 16.2353 4.61318 16.2183 4.68886V4.69618L13.9062 16.5272C13.8965 16.5443 13.8794 16.5809 13.833 16.6176C13.7842 16.6566 13.7451 16.681 13.5425 16.6005L9.84863 13.7684L7.61718 15.8021L8.08593 12.809C8.08593 12.809 13.8721 7.41591 14.1211 7.18398C14.3701 6.95204 14.2871 6.90321 14.2871 6.90321C14.3042 6.62001 13.9111 6.82021 13.9111 6.82021L6.30126 11.5346L6.29882 11.5224L2.65136 10.2943V10.2919C2.64892 10.2919 2.64404 10.2894 2.6416 10.2894C2.64404 10.2894 2.66113 10.2821 2.66113 10.2821L2.68066 10.2724L2.70019 10.265C2.70019 10.265 5.95703 8.89296 9.26757 7.49892C10.9253 6.80068 12.5952 6.09755 13.8794 5.55556C15.1636 5.01601 16.1133 4.6205 16.167 4.59853C16.2183 4.579 16.1938 4.579 16.2305 4.579Z" fill="black"/>
</svg>
