<svg width="20" height="21" viewBox="0 0 20 21" fill="none" xmlns="http://www.w3.org/2000/svg">
<path fill-rule="evenodd" clip-rule="evenodd" d="M10.3715 3.80821C10.3669 3.81297 10.3627 5.98193 10.3622 8.6281C10.3612 12.9558 10.3573 13.638 10.3321 13.7973C10.3148 13.9072 10.2953 13.9927 10.2671 14.0837C10.2346 14.1885 10.2323 14.1946 10.1828 14.3086C10.1649 14.35 10.1502 14.3868 10.1502 14.3904C10.1502 14.4063 10.0047 14.6432 9.95873 14.7021C9.86064 14.8277 9.70459 14.9845 9.60536 15.0571C9.55025 15.0974 9.50234 15.1336 9.49889 15.1375C9.492 15.1454 9.4804 15.1522 9.36111 15.2184C9.31633 15.2433 9.25598 15.2733 9.22699 15.2852C9.19799 15.297 9.15008 15.3178 9.12052 15.3314C9.06284 15.3578 9.00725 15.3754 8.8274 15.4237C8.56373 15.4945 8.093 15.4977 7.86315 15.4303C7.8281 15.42 7.78715 15.4115 7.77217 15.4115C7.75718 15.4115 7.73512 15.4062 7.72316 15.3998C7.7112 15.3933 7.67605 15.381 7.64505 15.3724C7.57669 15.3534 7.4304 15.2945 7.41394 15.2793C7.40739 15.2733 7.39518 15.2683 7.3868 15.2683C7.37841 15.2683 7.32864 15.242 7.27621 15.2098C7.22377 15.1775 7.17797 15.1512 7.17443 15.1512C7.1709 15.1512 7.16119 15.1453 7.15288 15.1381C7.14456 15.1309 7.09265 15.0905 7.03754 15.0482C6.69032 14.7822 6.40936 14.3202 6.3282 13.8819C6.25821 13.5039 6.25454 13.1014 6.31871 12.8405C6.37625 12.6065 6.47547 12.3667 6.57589 12.2189C6.599 12.1848 6.61792 12.1522 6.61792 12.1465C6.61792 12.1407 6.62795 12.1246 6.64021 12.1107C6.65249 12.0968 6.69419 12.0444 6.73288 11.9943C6.81027 11.8941 6.90369 11.7981 6.99995 11.7198C7.03438 11.6918 7.07003 11.6615 7.07917 11.6525C7.10483 11.6273 7.20376 11.5582 7.21417 11.5582C7.21928 11.5582 7.23235 11.5501 7.24323 11.5402C7.25411 11.5303 7.30528 11.4993 7.35695 11.4712C7.43744 11.4275 7.48842 11.4042 7.65131 11.3365C7.66509 11.3308 7.68764 11.3231 7.70141 11.3194C7.71519 11.3157 7.75747 11.3029 7.79536 11.291C7.97503 11.2345 8.28703 11.2009 8.45924 11.2196C8.74071 11.2501 8.84715 11.2713 8.92565 11.3125C8.93762 11.3188 8.96722 11.3239 8.99142 11.3239H9.03543V10.1474C9.03543 9.13791 9.03286 8.96863 9.01736 8.95524C8.99635 8.93714 8.87509 8.92047 8.62834 8.90182C8.25533 8.87361 7.83242 8.89674 7.53858 8.96144C7.48346 8.97357 7.42428 8.98607 7.40705 8.98921C7.37741 8.99462 7.35492 9.00025 7.22856 9.0339C7.13351 9.05921 6.96295 9.11333 6.94064 9.12526C6.92867 9.13165 6.90866 9.13688 6.89617 9.13688C6.88367 9.13688 6.86809 9.14178 6.86155 9.14775C6.855 9.15373 6.82146 9.16923 6.78702 9.1822C6.52456 9.28103 6.12861 9.5001 5.84754 9.70199C5.57923 9.89474 5.32277 10.1313 5.08734 10.4033C4.92592 10.5898 4.60124 11.0439 4.60124 11.0832C4.60124 11.087 4.58617 11.1149 4.56774 11.1452C4.53773 11.1945 4.49165 11.2821 4.42582 11.415C4.39984 11.4675 4.33128 11.628 4.29933 11.7112C4.24973 11.8403 4.22651 11.9048 4.21379 11.9488C4.20654 11.9738 4.19147 12.0236 4.18031 12.0594C4.14702 12.1663 4.10479 12.3381 4.08595 12.4434C3.97066 13.0881 3.9712 13.4698 4.08847 14.2009C4.11361 14.3576 4.16883 14.5967 4.1884 14.6335C4.19501 14.646 4.2004 14.666 4.2004 14.6781C4.2004 14.6997 4.25321 14.8722 4.2755 14.9234C4.28172 14.9377 4.29514 14.9758 4.3053 15.008C4.37518 15.2296 4.54517 15.5811 4.71666 15.8587C5.02461 16.3571 5.51811 16.8584 5.98008 17.142C6.18089 17.2653 6.46336 17.414 6.59913 17.468C6.62344 17.4776 6.6462 17.4871 6.72424 17.5199C6.76739 17.5381 6.91138 17.5869 6.9937 17.6113C7.0247 17.6205 7.07261 17.6354 7.10017 17.6444C7.20446 17.6788 7.29388 17.6989 7.61373 17.7599C7.79667 17.7947 7.88587 17.7998 8.31519 17.7998C8.74727 17.7998 8.83249 17.795 9.02291 17.7599C9.22861 17.722 9.2675 17.714 9.30563 17.7019C9.32679 17.6952 9.35663 17.6897 9.37197 17.6897C9.38729 17.6897 9.44607 17.6748 9.5026 17.6566C9.55912 17.6384 9.62791 17.6173 9.65547 17.6096C9.68302 17.6019 9.71684 17.5912 9.73062 17.5859C9.7444 17.5805 9.77822 17.5688 9.80578 17.5598C9.83334 17.5508 9.87279 17.536 9.89346 17.527C9.91413 17.5179 9.95077 17.5032 9.97488 17.4944C10.1031 17.4474 10.4321 17.2836 10.5414 17.2124C10.5671 17.1957 10.5913 17.182 10.5952 17.182C10.6047 17.182 10.9192 16.9665 10.941 16.9451C10.9504 16.9358 10.9807 16.9108 11.0083 16.8897C11.5188 16.498 12.0108 15.8293 12.2731 15.1707C12.3117 15.0739 12.3201 15.0536 12.3312 15.0309C12.3373 15.0185 12.3423 14.9994 12.3423 14.9884C12.3423 14.9775 12.3478 14.9584 12.3545 14.946C12.3716 14.9144 12.4286 14.7271 12.4684 14.5719C12.4739 14.5504 12.4853 14.5065 12.4937 14.4742C12.5329 14.3228 12.566 14.1332 12.5917 13.9123C12.5989 13.8502 12.6105 13.7727 12.6176 13.74C12.6358 13.6557 12.6361 13.3372 12.6187 12.6257C12.6092 12.2363 12.6051 11.4303 12.6076 10.449L12.6116 8.89073L12.668 8.92694C12.7624 8.98763 12.8655 9.04549 13.0751 9.15549C13.2492 9.24687 13.3303 9.28626 13.4383 9.33189C13.4521 9.33771 13.4959 9.35773 13.5357 9.37638C13.5755 9.395 13.6137 9.41026 13.6205 9.41026C13.6272 9.41026 13.6426 9.41583 13.6546 9.42265C13.6785 9.43627 13.8869 9.51332 13.9268 9.52333C13.9406 9.52677 13.9632 9.5343 13.9769 9.54004C13.9907 9.54579 14.0273 9.55774 14.0583 9.56659C14.0893 9.57545 14.1401 9.59004 14.1711 9.59902C14.3222 9.6428 14.408 9.6647 14.503 9.68373C14.5444 9.692 14.6007 9.70439 14.6283 9.71125C14.8918 9.77689 15.4863 9.8323 15.8379 9.824L15.9936 9.82033L15.9968 8.5945L16 7.36868L15.9091 7.36013C15.8591 7.35543 15.7252 7.3461 15.6116 7.33939C15.3696 7.3251 15.2566 7.31219 15.1105 7.28213C15.0109 7.26162 14.9809 7.2551 14.8444 7.22422C14.7492 7.2027 14.5108 7.12547 14.4341 7.09127C13.8757 6.84237 13.5949 6.61632 13.2902 6.17026C13.2432 6.10144 13.1937 6.02462 13.1803 5.99956C13.1668 5.9745 13.1455 5.93642 13.1329 5.91494C13.0736 5.81404 12.9435 5.55561 12.9435 5.53863C12.9435 5.53478 12.9301 5.50071 12.9137 5.46292C12.8972 5.42514 12.8769 5.37372 12.8686 5.34866C12.8602 5.3236 12.8484 5.29138 12.8424 5.27706C12.8292 5.24582 12.7773 5.0765 12.7585 5.00369C12.7511 4.97505 12.7382 4.92525 12.7297 4.89303C12.671 4.66922 12.6447 4.46106 12.6332 4.12927C12.6282 3.98485 12.6199 3.86238 12.6148 3.85709C12.6097 3.85181 12.3589 3.84277 12.0574 3.83702C11.756 3.83125 11.3881 3.8205 11.24 3.81311C10.9378 3.79803 10.3843 3.79491 10.3715 3.80821Z" fill="black"/>
</svg>
