<svg width="303" height="37" viewBox="0 0 303 37" fill="none" xmlns="http://www.w3.org/2000/svg">
<path d="M18.8999 36.4001C16.2332 36.4001 13.7666 35.9668 11.4999 35.1001C9.26657 34.2001 7.31657 32.9501 5.6499 31.3501C4.01657 29.7168 2.73324 27.8168 1.7999 25.6501C0.866569 23.4834 0.399902 21.1001 0.399902 18.5001C0.399902 15.9001 0.866569 13.5168 1.7999 11.3501C2.73324 9.18343 4.03324 7.3001 5.6999 5.7001C7.36657 4.06676 9.31657 2.81676 11.5499 1.9501C13.8166 1.0501 16.2832 0.600098 18.9499 0.600098C21.6499 0.600098 24.1332 1.06677 26.3999 2.0001C28.6999 2.9001 30.6499 4.25009 32.2499 6.0501L28.9999 9.2001C27.6666 7.8001 26.1666 6.76676 24.4999 6.1001C22.8332 5.4001 21.0499 5.0501 19.1499 5.0501C17.1832 5.0501 15.3499 5.38343 13.6499 6.0501C11.9832 6.71676 10.5332 7.6501 9.2999 8.8501C8.06657 10.0501 7.0999 11.4834 6.3999 13.1501C5.73324 14.7834 5.3999 16.5668 5.3999 18.5001C5.3999 20.4334 5.73324 22.2334 6.3999 23.9001C7.0999 25.5334 8.06657 26.9501 9.2999 28.1501C10.5332 29.3501 11.9832 30.2834 13.6499 30.9501C15.3499 31.6168 17.1832 31.9501 19.1499 31.9501C21.0499 31.9501 22.8332 31.6168 24.4999 30.9501C26.1666 30.2501 27.6666 29.1834 28.9999 27.7501L32.2499 30.9001C30.6499 32.7001 28.6999 34.0668 26.3999 35.0001C24.1332 35.9334 21.6332 36.4001 18.8999 36.4001Z" fill="black"/>
<path d="M54.4503 36.4001C51.7836 36.4001 49.3003 35.9501 47.0003 35.0501C44.7336 34.1501 42.767 32.9001 41.1003 31.3001C39.4336 29.6668 38.1336 27.7668 37.2003 25.6001C36.267 23.4334 35.8003 21.0668 35.8003 18.5001C35.8003 15.9334 36.267 13.5668 37.2003 11.4001C38.1336 9.23343 39.4336 7.3501 41.1003 5.7501C42.767 4.11676 44.7336 2.8501 47.0003 1.9501C49.267 1.0501 51.7503 0.600098 54.4503 0.600098C57.117 0.600098 59.567 1.0501 61.8003 1.9501C64.067 2.81676 66.0336 4.06676 67.7003 5.7001C69.4003 7.3001 70.7003 9.18343 71.6003 11.3501C72.5336 13.5168 73.0003 15.9001 73.0003 18.5001C73.0003 21.1001 72.5336 23.4834 71.6003 25.6501C70.7003 27.8168 69.4003 29.7168 67.7003 31.3501C66.0336 32.9501 64.067 34.2001 61.8003 35.1001C59.567 35.9668 57.117 36.4001 54.4503 36.4001ZM54.4503 31.9501C56.3836 31.9501 58.167 31.6168 59.8003 30.9501C61.467 30.2834 62.9003 29.3501 64.1003 28.1501C65.3336 26.9168 66.2836 25.4834 66.9503 23.8501C67.6503 22.2168 68.0003 20.4334 68.0003 18.5001C68.0003 16.5668 67.6503 14.7834 66.9503 13.1501C66.2836 11.5168 65.3336 10.1001 64.1003 8.9001C62.9003 7.66676 61.467 6.71676 59.8003 6.0501C58.167 5.38343 56.3836 5.0501 54.4503 5.0501C52.4836 5.0501 50.667 5.38343 49.0003 6.0501C47.367 6.71676 45.9336 7.66676 44.7003 8.9001C43.467 10.1001 42.5003 11.5168 41.8003 13.1501C41.1336 14.7834 40.8003 16.5668 40.8003 18.5001C40.8003 20.4334 41.1336 22.2168 41.8003 23.8501C42.5003 25.4834 43.467 26.9168 44.7003 28.1501C45.9336 29.3501 47.367 30.2834 49.0003 30.9501C50.667 31.6168 52.4836 31.9501 54.4503 31.9501Z" fill="black"/>
<path d="M90.8425 36.4001C88.1758 36.4001 85.6258 36.0001 83.1925 35.2001C80.7591 34.3668 78.8425 33.3001 77.4425 32.0001L79.2925 28.1001C80.6258 29.2668 82.3258 30.2334 84.3925 31.0001C86.4591 31.7668 88.6091 32.1501 90.8425 32.1501C92.8758 32.1501 94.5258 31.9168 95.7925 31.4501C97.0591 30.9834 97.9925 30.3501 98.5925 29.5501C99.1925 28.7168 99.4925 27.7834 99.4925 26.7501C99.4925 25.5501 99.0925 24.5834 98.2925 23.8501C97.5258 23.1168 96.5091 22.5334 95.2425 22.1001C94.0091 21.6334 92.6425 21.2334 91.1425 20.9001C89.6425 20.5668 88.1258 20.1834 86.5925 19.7501C85.0925 19.2834 83.7092 18.7001 82.4425 18.0001C81.2092 17.3001 80.2092 16.3668 79.4425 15.2001C78.6758 14.0001 78.2925 12.4668 78.2925 10.6001C78.2925 8.8001 78.7591 7.1501 79.6925 5.6501C80.6591 4.11676 82.1258 2.9001 84.0925 2.0001C86.0925 1.06677 88.6258 0.600098 91.6925 0.600098C93.7258 0.600098 95.7425 0.866764 97.7425 1.4001C99.7425 1.93343 101.476 2.7001 102.942 3.7001L101.292 7.7001C99.7925 6.7001 98.2091 5.98343 96.5425 5.5501C94.8758 5.08343 93.2591 4.8501 91.6925 4.8501C89.7258 4.8501 88.1092 5.1001 86.8425 5.6001C85.5758 6.1001 84.6425 6.76676 84.0425 7.6001C83.4758 8.43343 83.1925 9.36676 83.1925 10.4001C83.1925 11.6334 83.5758 12.6168 84.3425 13.3501C85.1425 14.0834 86.1591 14.6668 87.3925 15.1001C88.6591 15.5334 90.0425 15.9334 91.5425 16.3001C93.0425 16.6334 94.5425 17.0168 96.0425 17.4501C97.5758 17.8834 98.9592 18.4501 100.192 19.1501C101.459 19.8501 102.476 20.7834 103.242 21.9501C104.009 23.1168 104.392 24.6168 104.392 26.4501C104.392 28.2168 103.909 29.8668 102.942 31.4001C101.976 32.9001 100.476 34.1168 98.4425 35.0501C96.4425 35.9501 93.9091 36.4001 90.8425 36.4001Z" fill="black"/>
<path d="M111.697 36.0001V1.0001H115.797L131.497 27.4501H129.297L144.797 1.0001H148.897L148.947 36.0001H144.147L144.097 8.5501H145.247L131.447 31.7501H129.147L115.247 8.5501H116.497V36.0001H111.697Z" fill="black"/>
<path d="M175.251 36.4001C172.584 36.4001 170.101 35.9501 167.801 35.0501C165.534 34.1501 163.568 32.9001 161.901 31.3001C160.234 29.6668 158.934 27.7668 158.001 25.6001C157.068 23.4334 156.601 21.0668 156.601 18.5001C156.601 15.9334 157.068 13.5668 158.001 11.4001C158.934 9.23343 160.234 7.3501 161.901 5.7501C163.568 4.11676 165.534 2.8501 167.801 1.9501C170.068 1.0501 172.551 0.600098 175.251 0.600098C177.918 0.600098 180.368 1.0501 182.601 1.9501C184.868 2.81676 186.834 4.06676 188.501 5.7001C190.201 7.3001 191.501 9.18343 192.401 11.3501C193.334 13.5168 193.801 15.9001 193.801 18.5001C193.801 21.1001 193.334 23.4834 192.401 25.6501C191.501 27.8168 190.201 29.7168 188.501 31.3501C186.834 32.9501 184.868 34.2001 182.601 35.1001C180.368 35.9668 177.918 36.4001 175.251 36.4001ZM175.251 31.9501C177.184 31.9501 178.968 31.6168 180.601 30.9501C182.268 30.2834 183.701 29.3501 184.901 28.1501C186.134 26.9168 187.084 25.4834 187.751 23.8501C188.451 22.2168 188.801 20.4334 188.801 18.5001C188.801 16.5668 188.451 14.7834 187.751 13.1501C187.084 11.5168 186.134 10.1001 184.901 8.9001C183.701 7.66676 182.268 6.71676 180.601 6.0501C178.968 5.38343 177.184 5.0501 175.251 5.0501C173.284 5.0501 171.468 5.38343 169.801 6.0501C168.168 6.71676 166.734 7.66676 165.501 8.9001C164.268 10.1001 163.301 11.5168 162.601 13.1501C161.934 14.7834 161.601 16.5668 161.601 18.5001C161.601 20.4334 161.934 22.2168 162.601 23.8501C163.301 25.4834 164.268 26.9168 165.501 28.1501C166.734 29.3501 168.168 30.2834 169.801 30.9501C171.468 31.6168 173.284 31.9501 175.251 31.9501Z" fill="black"/>
<path d="M201.443 36.0001V1.0001H206.443V31.6501H225.393V36.0001H201.443Z" fill="black"/>
<path d="M231.831 36.0001L247.681 1.0001H252.631L268.531 36.0001H263.281L249.131 3.8001H251.131L236.981 36.0001H231.831ZM238.581 27.2501L239.931 23.2501H259.631L261.081 27.2501H238.581Z" fill="black"/>
<path d="M288.914 36.4001C286.247 36.4001 283.78 35.9668 281.514 35.1001C279.28 34.2001 277.33 32.9501 275.664 31.3501C274.03 29.7168 272.747 27.8168 271.814 25.6501C270.88 23.4834 270.414 21.1001 270.414 18.5001C270.414 15.9001 270.88 13.5168 271.814 11.3501C272.747 9.18343 274.047 7.3001 275.714 5.7001C277.38 4.06676 279.33 2.81676 281.564 1.9501C283.83 1.0501 286.297 0.600098 288.964 0.600098C291.664 0.600098 294.147 1.06677 296.414 2.0001C298.714 2.9001 300.664 4.25009 302.264 6.0501L299.014 9.2001C297.68 7.8001 296.18 6.76676 294.514 6.1001C292.847 5.4001 291.064 5.0501 289.164 5.0501C287.197 5.0501 285.364 5.38343 283.664 6.0501C281.997 6.71676 280.547 7.6501 279.314 8.8501C278.08 10.0501 277.114 11.4834 276.414 13.1501C275.747 14.7834 275.414 16.5668 275.414 18.5001C275.414 20.4334 275.747 22.2334 276.414 23.9001C277.114 25.5334 278.08 26.9501 279.314 28.1501C280.547 29.3501 281.997 30.2834 283.664 30.9501C285.364 31.6168 287.197 31.9501 289.164 31.9501C291.064 31.9501 292.847 31.6168 294.514 30.9501C296.18 30.2501 297.68 29.1834 299.014 27.7501L302.264 30.9001C300.664 32.7001 298.714 34.0668 296.414 35.0001C294.147 35.9334 291.647 36.4001 288.914 36.4001Z" fill="black"/>
</svg>
