<svg width="28" height="30" viewBox="0 0 28 30" fill="none" xmlns="http://www.w3.org/2000/svg">
<path d="M16.4085 21.8944H16.4037C8.04257 21.8944 3.29568 17.5993 3.29568 12.301C3.29568 7.0027 8.04885 2.70759 16.4037 2.70759H16.4061C21.2016 2.70836 24.8936 3.93196 27.2945 5.87873V3.01191C24.6434 1.13731 20.9719 0 16.4037 0C6.3374 0 0.61084 5.50773 0.61084 12.301C0.61084 19.095 6.32955 24.602 16.4037 24.602C20.9742 24.602 24.6441 23.4655 27.2945 21.5924V18.7256C24.8951 20.67 21.2048 21.8936 16.4085 21.8944ZM2.29785 30H27.296V27.301H2.29785V30Z" fill="black"/>
</svg>
