<svg width="249" height="145" viewBox="0 0 249 145" fill="none" xmlns="http://www.w3.org/2000/svg">
<path d="M120.706 4.41814C122.702 2.09439 126.298 2.0944 128.294 4.41815L241.91 136.743C244.694 139.985 242.39 145 238.117 145H10.8833C6.60953 145 4.3057 139.985 7.08979 136.743L120.706 4.41814Z" fill="url(#paint0_linear_484_2675)"/>
<path d="M89.8477 91V78.4H99.6577V80.326H92.1517V83.422H95.8777C97.3897 83.422 98.5357 83.74 99.3157 84.376C100.108 85 100.504 85.912 100.504 87.112C100.504 88.348 100.066 89.308 99.1897 89.992C98.3257 90.664 97.1017 91 95.5177 91H89.8477ZM92.1517 89.2H95.3917C96.2917 89.2 96.9757 89.026 97.4437 88.678C97.9117 88.33 98.1457 87.826 98.1457 87.166C98.1457 85.87 97.2277 85.222 95.3917 85.222H92.1517V89.2ZM103.066 91V78.4H108.25C109.366 78.4 110.32 78.58 111.112 78.94C111.916 79.3 112.534 79.816 112.966 80.488C113.398 81.16 113.614 81.958 113.614 82.882C113.614 83.806 113.398 84.604 112.966 85.276C112.534 85.948 111.916 86.464 111.112 86.824C110.32 87.184 109.366 87.364 108.25 87.364H104.362L105.406 86.266V91H103.066ZM105.406 86.518L104.362 85.384H108.142C109.174 85.384 109.948 85.168 110.464 84.736C110.992 84.292 111.256 83.674 111.256 82.882C111.256 82.078 110.992 81.46 110.464 81.028C109.948 80.596 109.174 80.38 108.142 80.38H104.362L105.406 79.228V86.518ZM117.988 83.638H124.252V85.564H117.988V83.638ZM118.168 89.038H125.278V91H115.828V78.4H125.026V80.362H118.168V89.038ZM136.742 78.4H139.082V91H136.742V78.4ZM130.226 91H127.886V78.4H130.226V91ZM136.922 85.6H130.028V83.602H136.922V85.6ZM150.864 89.92V80.38H145.932L145.842 82.612C145.806 83.452 145.752 84.25 145.68 85.006C145.62 85.75 145.518 86.428 145.374 87.04C145.242 87.652 145.056 88.162 144.816 88.57C144.576 88.978 144.282 89.248 143.934 89.38L141.414 89.02C141.87 89.044 142.242 88.888 142.53 88.552C142.83 88.216 143.064 87.748 143.232 87.148C143.4 86.548 143.526 85.846 143.61 85.042C143.694 84.226 143.754 83.344 143.79 82.396L143.934 78.4H153.168V89.92H150.864ZM140.982 93.682L141 89.02H154.986V93.682H152.826V91H143.16V93.682H140.982ZM156.448 93.718L157.492 89.74L157.798 91.072C157.378 91.072 157.024 90.946 156.736 90.694C156.46 90.43 156.322 90.076 156.322 89.632C156.322 89.176 156.46 88.816 156.736 88.552C157.024 88.276 157.372 88.138 157.78 88.138C158.2 88.138 158.548 88.276 158.824 88.552C159.1 88.828 159.238 89.188 159.238 89.632C159.238 89.752 159.226 89.884 159.202 90.028C159.178 90.16 159.136 90.316 159.076 90.496C159.028 90.676 158.944 90.904 158.824 91.18L157.906 93.718H156.448ZM84.3648 113L80.0988 106.862L81.9888 105.692L87.0108 113H84.3648ZM76.0308 113V100.4H78.3348V113H76.0308ZM77.6328 107.69V105.674H81.8808V107.69H77.6328ZM82.2048 106.97L80.0628 106.682L84.3648 100.4H86.8488L82.2048 106.97ZM94.414 113.18C93.43 113.18 92.524 113.018 91.696 112.694C90.868 112.37 90.148 111.92 89.536 111.344C88.924 110.756 88.45 110.072 88.114 109.292C87.778 108.5 87.61 107.636 87.61 106.7C87.61 105.764 87.778 104.906 88.114 104.126C88.45 103.334 88.924 102.65 89.536 102.074C90.148 101.486 90.868 101.03 91.696 100.706C92.524 100.382 93.424 100.22 94.396 100.22C95.38 100.22 96.28 100.382 97.096 100.706C97.924 101.03 98.644 101.486 99.256 102.074C99.868 102.65 100.342 103.334 100.678 104.126C101.014 104.906 101.182 105.764 101.182 106.7C101.182 107.636 101.014 108.5 100.678 109.292C100.342 110.084 99.868 110.768 99.256 111.344C98.644 111.92 97.924 112.37 97.096 112.694C96.28 113.018 95.386 113.18 94.414 113.18ZM94.396 111.128C95.032 111.128 95.62 111.02 96.16 110.804C96.7 110.588 97.168 110.282 97.564 109.886C97.96 109.478 98.266 109.01 98.482 108.482C98.71 107.942 98.824 107.348 98.824 106.7C98.824 106.052 98.71 105.464 98.482 104.936C98.266 104.396 97.96 103.928 97.564 103.532C97.168 103.124 96.7 102.812 96.16 102.596C95.62 102.38 95.032 102.272 94.396 102.272C93.76 102.272 93.172 102.38 92.632 102.596C92.104 102.812 91.636 103.124 91.228 103.532C90.832 103.928 90.52 104.396 90.292 104.936C90.076 105.464 89.968 106.052 89.968 106.7C89.968 107.336 90.076 107.924 90.292 108.464C90.52 109.004 90.832 109.478 91.228 109.886C91.624 110.282 92.092 110.588 92.632 110.804C93.172 111.02 93.76 111.128 94.396 111.128ZM106.239 113V101.804L106.797 102.38H102.081V100.4H112.737V102.38H108.021L108.561 101.804V113H106.239ZM120.43 113.18C119.446 113.18 118.54 113.018 117.712 112.694C116.884 112.37 116.164 111.92 115.552 111.344C114.94 110.756 114.466 110.072 114.13 109.292C113.794 108.5 113.626 107.636 113.626 106.7C113.626 105.764 113.794 104.906 114.13 104.126C114.466 103.334 114.94 102.65 115.552 102.074C116.164 101.486 116.884 101.03 117.712 100.706C118.54 100.382 119.44 100.22 120.412 100.22C121.396 100.22 122.296 100.382 123.112 100.706C123.94 101.03 124.66 101.486 125.272 102.074C125.884 102.65 126.358 103.334 126.694 104.126C127.03 104.906 127.198 105.764 127.198 106.7C127.198 107.636 127.03 108.5 126.694 109.292C126.358 110.084 125.884 110.768 125.272 111.344C124.66 111.92 123.94 112.37 123.112 112.694C122.296 113.018 121.402 113.18 120.43 113.18ZM120.412 111.128C121.048 111.128 121.636 111.02 122.176 110.804C122.716 110.588 123.184 110.282 123.58 109.886C123.976 109.478 124.282 109.01 124.498 108.482C124.726 107.942 124.84 107.348 124.84 106.7C124.84 106.052 124.726 105.464 124.498 104.936C124.282 104.396 123.976 103.928 123.58 103.532C123.184 103.124 122.716 102.812 122.176 102.596C121.636 102.38 121.048 102.272 120.412 102.272C119.776 102.272 119.188 102.38 118.648 102.596C118.12 102.812 117.652 103.124 117.244 103.532C116.848 103.928 116.536 104.396 116.308 104.936C116.092 105.464 115.984 106.052 115.984 106.7C115.984 107.336 116.092 107.924 116.308 108.464C116.536 109.004 116.848 109.478 117.244 109.886C117.64 110.282 118.108 110.588 118.648 110.804C119.188 111.02 119.776 111.128 120.412 111.128ZM129.785 113V100.4H134.969C136.085 100.4 137.039 100.58 137.831 100.94C138.635 101.3 139.253 101.816 139.685 102.488C140.117 103.16 140.333 103.958 140.333 104.882C140.333 105.806 140.117 106.604 139.685 107.276C139.253 107.948 138.635 108.464 137.831 108.824C137.039 109.184 136.085 109.364 134.969 109.364H131.081L132.125 108.266V113H129.785ZM132.125 108.518L131.081 107.384H134.861C135.893 107.384 136.667 107.168 137.183 106.736C137.711 106.292 137.975 105.674 137.975 104.882C137.975 104.078 137.711 103.46 137.183 103.028C136.667 102.596 135.893 102.38 134.861 102.38H131.081L132.125 101.228V108.518ZM148.36 104.666C149.86 104.666 151.018 105.002 151.834 105.674C152.65 106.346 153.058 107.354 153.058 108.698C153.058 110.114 152.608 111.188 151.708 111.92C150.82 112.64 149.578 113 147.982 113H142.564V100.4H144.868V104.666H148.36ZM147.874 111.2C148.774 111.2 149.47 110.99 149.962 110.57C150.466 110.15 150.718 109.538 150.718 108.734C150.718 107.942 150.472 107.366 149.98 107.006C149.488 106.634 148.786 106.448 147.874 106.448H144.868V111.2H147.874ZM154.876 113V100.4H157.18V113H154.876ZM160.74 113V100.4H163.044V109.346L169.812 100.4H171.99V113H169.686V104.072L162.918 113H160.74ZM166.338 99.554C165.258 99.554 164.442 99.326 163.89 98.87C163.35 98.414 163.074 97.772 163.062 96.944H164.7C164.712 97.388 164.856 97.73 165.132 97.97C165.42 98.21 165.822 98.33 166.338 98.33C166.854 98.33 167.256 98.21 167.544 97.97C167.844 97.73 168 97.388 168.012 96.944H169.632C169.62 97.772 169.338 98.414 168.786 98.87C168.234 99.326 167.418 99.554 166.338 99.554ZM28.5703 135V122.4H39.7123V135H37.4083V123.804L37.9483 124.38H30.3343L30.8743 123.804V135H28.5703ZM43.2652 135V122.4H48.4492C49.5652 122.4 50.5192 122.58 51.3112 122.94C52.1152 123.3 52.7332 123.816 53.1652 124.488C53.5972 125.16 53.8132 125.958 53.8132 126.882C53.8132 127.806 53.5972 128.604 53.1652 129.276C52.7332 129.948 52.1152 130.464 51.3112 130.824C50.5192 131.184 49.5652 131.364 48.4492 131.364H44.5612L45.6052 130.266V135H43.2652ZM45.6052 130.518L44.5612 129.384H48.3412C49.3732 129.384 50.1472 129.168 50.6632 128.736C51.1912 128.292 51.4552 127.674 51.4552 126.882C51.4552 126.078 51.1912 125.46 50.6632 125.028C50.1472 124.596 49.3732 124.38 48.3412 124.38H44.5612L45.6052 123.228V130.518ZM62.0527 135.18C61.0687 135.18 60.1627 135.018 59.3347 134.694C58.5067 134.37 57.7867 133.92 57.1747 133.344C56.5627 132.756 56.0887 132.072 55.7527 131.292C55.4167 130.5 55.2487 129.636 55.2487 128.7C55.2487 127.764 55.4167 126.906 55.7527 126.126C56.0887 125.334 56.5627 124.65 57.1747 124.074C57.7867 123.486 58.5067 123.03 59.3347 122.706C60.1627 122.382 61.0627 122.22 62.0347 122.22C63.0187 122.22 63.9187 122.382 64.7347 122.706C65.5627 123.03 66.2827 123.486 66.8947 124.074C67.5067 124.65 67.9807 125.334 68.3167 126.126C68.6527 126.906 68.8207 127.764 68.8207 128.7C68.8207 129.636 68.6527 130.5 68.3167 131.292C67.9807 132.084 67.5067 132.768 66.8947 133.344C66.2827 133.92 65.5627 134.37 64.7347 134.694C63.9187 135.018 63.0247 135.18 62.0527 135.18ZM62.0347 133.128C62.6707 133.128 63.2587 133.02 63.7987 132.804C64.3387 132.588 64.8067 132.282 65.2027 131.886C65.5987 131.478 65.9047 131.01 66.1207 130.482C66.3487 129.942 66.4627 129.348 66.4627 128.7C66.4627 128.052 66.3487 127.464 66.1207 126.936C65.9047 126.396 65.5987 125.928 65.2027 125.532C64.8067 125.124 64.3387 124.812 63.7987 124.596C63.2587 124.38 62.6707 124.272 62.0347 124.272C61.3987 124.272 60.8107 124.38 60.2707 124.596C59.7427 124.812 59.2747 125.124 58.8667 125.532C58.4707 125.928 58.1587 126.396 57.9307 126.936C57.7147 127.464 57.6067 128.052 57.6067 128.7C57.6067 129.336 57.7147 129.924 57.9307 130.464C58.1587 131.004 58.4707 131.478 58.8667 131.886C59.2627 132.282 59.7307 132.588 60.2707 132.804C60.8107 133.02 61.3987 133.128 62.0347 133.128ZM79.4262 133.92V124.38H74.4942L74.4042 126.612C74.3682 127.452 74.3142 128.25 74.2422 129.006C74.1822 129.75 74.0802 130.428 73.9362 131.04C73.8042 131.652 73.6182 132.162 73.3782 132.57C73.1382 132.978 72.8442 133.248 72.4962 133.38L69.9762 133.02C70.4322 133.044 70.8042 132.888 71.0922 132.552C71.3922 132.216 71.6262 131.748 71.7942 131.148C71.9622 130.548 72.0882 129.846 72.1722 129.042C72.2562 128.226 72.3162 127.344 72.3522 126.396L72.4962 122.4H81.7302V133.92H79.4262ZM69.5442 137.682L69.5622 133.02H83.5482V137.682H81.3882V135H71.7222V137.682H69.5442ZM84.1671 135L89.8371 122.4H92.1411L97.8291 135H95.3811L90.5031 123.642H91.4391L86.5791 135H84.1671ZM86.7771 132.084L87.4071 130.248H94.2111L94.8411 132.084H86.7771ZM101.921 127.638H108.185V129.564H101.921V127.638ZM102.101 133.038H109.211V135H99.7613V122.4H108.959V124.362H102.101V133.038ZM114.466 135V123.804L115.024 124.38H110.308V122.4H120.964V124.38H116.248L116.788 123.804V135H114.466ZM133.753 135.18C132.793 135.18 131.899 135.024 131.071 134.712C130.255 134.388 129.541 133.938 128.929 133.362C128.329 132.774 127.861 132.084 127.525 131.292C127.189 130.5 127.021 129.636 127.021 128.7C127.021 127.764 127.189 126.9 127.525 126.108C127.861 125.316 128.335 124.632 128.947 124.056C129.559 123.468 130.273 123.018 131.089 122.706C131.905 122.382 132.799 122.22 133.771 122.22C134.803 122.22 135.745 122.4 136.597 122.76C137.449 123.108 138.169 123.63 138.757 124.326L137.245 125.748C136.789 125.256 136.279 124.89 135.715 124.65C135.151 124.398 134.539 124.272 133.879 124.272C133.219 124.272 132.613 124.38 132.061 124.596C131.521 124.812 131.047 125.118 130.639 125.514C130.243 125.91 129.931 126.378 129.703 126.918C129.487 127.458 129.379 128.052 129.379 128.7C129.379 129.348 129.487 129.942 129.703 130.482C129.931 131.022 130.243 131.49 130.639 131.886C131.047 132.282 131.521 132.588 132.061 132.804C132.613 133.02 133.219 133.128 133.879 133.128C134.539 133.128 135.151 133.008 135.715 132.768C136.279 132.516 136.789 132.138 137.245 131.634L138.757 133.074C138.169 133.758 137.449 134.28 136.597 134.64C135.745 135 134.797 135.18 133.753 135.18ZM139.064 135L144.734 122.4H147.038L152.726 135H150.278L145.4 123.642H146.336L141.476 135H139.064ZM141.674 132.084L142.304 130.248H149.108L149.738 132.084H141.674ZM154.676 135V122.4H156.584L162.11 131.598H161.084L166.52 122.4H168.428L168.464 135H166.232L166.214 125.874H166.682L162.074 133.56H161.03L156.35 125.874H156.89V135H154.676ZM182.76 135.18C181.8 135.18 180.906 135.024 180.078 134.712C179.262 134.388 178.548 133.938 177.936 133.362C177.336 132.774 176.868 132.084 176.532 131.292C176.196 130.5 176.028 129.636 176.028 128.7C176.028 127.764 176.196 126.9 176.532 126.108C176.868 125.316 177.342 124.632 177.954 124.056C178.566 123.468 179.28 123.018 180.096 122.706C180.912 122.382 181.806 122.22 182.778 122.22C183.81 122.22 184.752 122.4 185.604 122.76C186.456 123.108 187.176 123.63 187.764 124.326L186.252 125.748C185.796 125.256 185.286 124.89 184.722 124.65C184.158 124.398 183.546 124.272 182.886 124.272C182.226 124.272 181.62 124.38 181.068 124.596C180.528 124.812 180.054 125.118 179.646 125.514C179.25 125.91 178.938 126.378 178.71 126.918C178.494 127.458 178.386 128.052 178.386 128.7C178.386 129.348 178.494 129.942 178.71 130.482C178.938 131.022 179.25 131.49 179.646 131.886C180.054 132.282 180.528 132.588 181.068 132.804C181.62 133.02 182.226 133.128 182.886 133.128C183.546 133.128 184.158 133.008 184.722 132.768C185.286 132.516 185.796 132.138 186.252 131.634L187.764 133.074C187.176 133.758 186.456 134.28 185.604 134.64C184.752 135 183.804 135.18 182.76 135.18ZM192.097 127.638H198.361V129.564H192.097V127.638ZM192.277 133.038H199.387V135H189.937V122.4H199.135V124.362H192.277V133.038ZM202.014 135V122.4H211.824V124.326H204.318V127.422H208.044C209.556 127.422 210.702 127.74 211.482 128.376C212.274 129 212.67 129.912 212.67 131.112C212.67 132.348 212.232 133.308 211.356 133.992C210.492 134.664 209.268 135 207.684 135H202.014ZM204.318 133.2H207.558C208.458 133.2 209.142 133.026 209.61 132.678C210.078 132.33 210.312 131.826 210.312 131.166C210.312 129.87 209.394 129.222 207.558 129.222H204.318V133.2ZM222.119 135V130.968L222.695 131.49H219.005C217.949 131.49 217.037 131.316 216.269 130.968C215.513 130.608 214.931 130.098 214.523 129.438C214.115 128.766 213.911 127.962 213.911 127.026C213.911 126.054 214.127 125.226 214.559 124.542C214.991 123.846 215.603 123.318 216.395 122.958C217.187 122.586 218.117 122.4 219.185 122.4H224.423V135H222.119ZM213.947 135L217.061 130.5H219.419L216.413 135H213.947ZM222.119 130.212V123.732L222.695 124.38H219.257C218.297 124.38 217.559 124.602 217.043 125.046C216.539 125.478 216.287 126.126 216.287 126.99C216.287 127.818 216.527 128.46 217.007 128.916C217.499 129.36 218.219 129.582 219.167 129.582H222.695L222.119 130.212Z" fill="#E71A95"/>
<defs>
<linearGradient id="paint0_linear_484_2675" x1="124.5" y1="36.1172" x2="124.5" y2="120" gradientUnits="userSpaceOnUse">
<stop stop-color="#E8E6E7" stop-opacity="0"/>
<stop offset="1" stop-color="#E8E6E7"/>
</linearGradient>
</defs>
</svg>
