<svg width="26" height="26" viewBox="0 0 26 26" fill="none" xmlns="http://www.w3.org/2000/svg">
<path d="M9.71881 0.8125C4.80819 0.8125 0.812561 4.80813 0.812561 9.71875C0.812561 14.6294 4.80819 18.625 9.71881 18.625C11.8371 18.625 13.7822 17.8781 15.3127 16.6383L23.9003 25.226L25.226 23.9003L16.6384 15.3126C17.8781 13.7821 18.6251 11.8371 18.6251 9.71875C18.6251 4.80813 14.6294 0.8125 9.71881 0.8125ZM9.71881 2.6875C13.5963 2.6875 16.7501 5.84125 16.7501 9.71875C16.7501 13.5963 13.5963 16.75 9.71881 16.75C5.84131 16.75 2.68756 13.5963 2.68756 9.71875C2.68756 5.84125 5.84131 2.6875 9.71881 2.6875Z" fill="black"/>
</svg>
