<svg width="188" height="67" viewBox="0 0 188 67" fill="none" xmlns="http://www.w3.org/2000/svg">
<path d="M11.9672 22.7482C10.3106 22.7482 8.77826 22.479 7.37015 21.9406C5.98275 21.3815 4.77136 20.6049 3.73598 19.611C2.72131 18.5963 1.92407 17.416 1.34426 16.07C0.764453 14.724 0.474548 13.2434 0.474548 11.6282C0.474548 10.013 0.764453 8.53246 1.34426 7.18647C1.92407 5.84049 2.73167 4.67051 3.76704 3.67655C4.80242 2.66188 6.01381 1.88535 7.40121 1.34695C8.80932 0.787852 10.3417 0.508301 11.9983 0.508301C13.6756 0.508301 15.2183 0.798206 16.6264 1.37802C18.0552 1.93712 19.2666 2.77577 20.2606 3.89398L18.2416 5.85084C17.4133 4.98112 16.4815 4.33919 15.4461 3.92504C14.4107 3.49018 13.3029 3.27275 12.1225 3.27275C10.9008 3.27275 9.76187 3.47983 8.70579 3.89398C7.67041 4.30813 6.76963 4.88794 6.00345 5.63341C5.23728 6.37888 4.63676 7.2693 4.2019 8.30468C3.78775 9.31935 3.58068 10.4272 3.58068 11.6282C3.58068 12.8293 3.78775 13.9475 4.2019 14.9829C4.63676 15.9975 5.23728 16.8776 6.00345 17.6231C6.76963 18.3685 7.67041 18.9483 8.70579 19.3625C9.76187 19.7766 10.9008 19.9837 12.1225 19.9837C13.3029 19.9837 14.4107 19.7766 15.4461 19.3625C16.4815 18.9276 17.4133 18.265 18.2416 17.3746L20.2606 19.3314C19.2666 20.4496 18.0552 21.2986 16.6264 21.8785C15.2183 22.4583 13.6652 22.7482 11.9672 22.7482Z" fill="white"/>
<path d="M34.052 22.7482C32.3954 22.7482 30.8527 22.4686 29.4239 21.9095C28.0158 21.3504 26.794 20.5739 25.7587 19.5799C24.7233 18.5653 23.9157 17.3849 23.3359 16.0389C22.7561 14.6929 22.4662 13.2227 22.4662 11.6282C22.4662 10.0338 22.7561 8.56352 23.3359 7.21754C23.9157 5.87155 24.7233 4.70157 25.7587 3.70761C26.794 2.69294 28.0158 1.90606 29.4239 1.34695C30.832 0.787852 32.3747 0.508301 34.052 0.508301C35.7086 0.508301 37.2306 0.787852 38.618 1.34695C40.0261 1.88535 41.2479 2.66188 42.2833 3.67655C43.3393 4.67051 44.1469 5.84049 44.706 7.18647C45.2859 8.53246 45.5758 10.013 45.5758 11.6282C45.5758 13.2434 45.2859 14.724 44.706 16.07C44.1469 17.416 43.3393 18.5963 42.2833 19.611C41.2479 20.6049 40.0261 21.3815 38.618 21.9406C37.2306 22.479 35.7086 22.7482 34.052 22.7482ZM34.052 19.9837C35.2531 19.9837 36.3609 19.7766 37.3756 19.3625C38.411 18.9483 39.3014 18.3685 40.0469 17.6231C40.813 16.8569 41.4032 15.9665 41.8173 14.9518C42.2522 13.9371 42.4696 12.8293 42.4696 11.6282C42.4696 10.4272 42.2522 9.31935 41.8173 8.30468C41.4032 7.29001 40.813 6.40994 40.0469 5.66447C39.3014 4.89829 38.411 4.30813 37.3756 3.89398C36.3609 3.47983 35.2531 3.27275 34.052 3.27275C32.8303 3.27275 31.7017 3.47983 30.6663 3.89398C29.6517 4.30813 28.7613 4.89829 27.9951 5.66447C27.2289 6.40994 26.6284 7.29001 26.1935 8.30468C25.7794 9.31935 25.5723 10.4272 25.5723 11.6282C25.5723 12.8293 25.7794 13.9371 26.1935 14.9518C26.6284 15.9665 27.2289 16.8569 27.9951 17.6231C28.7613 18.3685 29.6517 18.9483 30.6663 19.3625C31.7017 19.7766 32.8303 19.9837 34.052 19.9837Z" fill="white"/>
<path d="M56.6598 22.7482C55.0032 22.7482 53.4191 22.4997 51.9074 22.0027C50.3958 21.485 49.2051 20.8224 48.3354 20.0148L49.4846 17.592C50.3129 18.3168 51.369 18.9173 52.6529 19.3936C53.9367 19.8698 55.2724 20.108 56.6598 20.108C57.9229 20.108 58.948 19.963 59.7348 19.6731C60.5217 19.3832 61.1015 18.9898 61.4743 18.4928C61.847 17.9751 62.0334 17.3953 62.0334 16.7533C62.0334 16.0079 61.7849 15.4074 61.2879 14.9518C60.8116 14.4962 60.1801 14.1338 59.3932 13.8646C58.627 13.5747 57.778 13.3263 56.8461 13.1192C55.9143 12.9121 54.9721 12.674 54.0196 12.4048C53.0877 12.1149 52.2284 11.7525 51.4415 11.3176C50.6753 10.8828 50.0541 10.303 49.5778 9.57819C49.1015 8.83272 48.8634 7.88018 48.8634 6.72055C48.8634 5.60235 49.1533 4.57733 49.7331 3.64549C50.3336 2.69294 51.2448 1.93712 52.4665 1.37802C53.709 0.798206 55.2827 0.508301 57.1878 0.508301C58.451 0.508301 59.7038 0.673961 60.9462 1.00528C62.1887 1.3366 63.2655 1.81287 64.1766 2.4341L63.1516 4.919C62.2197 4.29777 61.2361 3.85256 60.2008 3.58337C59.1654 3.29346 58.1611 3.14851 57.1878 3.14851C55.9661 3.14851 54.9618 3.30381 54.1749 3.61443C53.388 3.92504 52.8082 4.33919 52.4354 4.85688C52.0834 5.37457 51.9074 5.95438 51.9074 6.59631C51.9074 7.36249 52.1455 7.97336 52.6218 8.42893C53.1188 8.88449 53.7504 9.24687 54.5165 9.51607C55.3034 9.78527 56.1628 10.0338 57.0946 10.2615C58.0265 10.4686 58.9583 10.7068 59.8901 10.9759C60.8427 11.2451 61.7021 11.5972 62.4682 12.032C63.2551 12.4669 63.8867 13.0467 64.363 13.7715C64.8392 14.4962 65.0774 15.4281 65.0774 16.567C65.0774 17.6645 64.7771 18.6895 64.1766 19.642C63.5761 20.5739 62.6442 21.3297 61.3811 21.9095C60.1386 22.4686 58.5649 22.7482 56.6598 22.7482Z" fill="white"/>
<path d="M69.6152 22.4997V0.75679H72.1623L81.9155 17.1882H80.5488L90.1778 0.75679H92.7248L92.7559 22.4997H89.774L89.7429 5.44704H90.4574L81.8844 19.8595H80.4556L71.8206 5.44704H72.5971V22.4997H69.6152Z" fill="white"/>
<path d="M109.097 22.7482C107.44 22.7482 105.897 22.4686 104.468 21.9095C103.06 21.3504 101.839 20.5739 100.803 19.5799C99.7678 18.5653 98.9602 17.3849 98.3804 16.0389C97.8006 14.6929 97.5107 13.2227 97.5107 11.6282C97.5107 10.0338 97.8006 8.56352 98.3804 7.21754C98.9602 5.87155 99.7678 4.70157 100.803 3.70761C101.839 2.69294 103.06 1.90606 104.468 1.34695C105.877 0.787852 107.419 0.508301 109.097 0.508301C110.753 0.508301 112.275 0.787852 113.663 1.34695C115.071 1.88535 116.292 2.66188 117.328 3.67655C118.384 4.67051 119.191 5.84049 119.751 7.18647C120.33 8.53246 120.62 10.013 120.62 11.6282C120.62 13.2434 120.33 14.724 119.751 16.07C119.191 17.416 118.384 18.5963 117.328 19.611C116.292 20.6049 115.071 21.3815 113.663 21.9406C112.275 22.479 110.753 22.7482 109.097 22.7482ZM109.097 19.9837C110.298 19.9837 111.405 19.7766 112.42 19.3625C113.455 18.9483 114.346 18.3685 115.091 17.6231C115.858 16.8569 116.448 15.9665 116.862 14.9518C117.297 13.9371 117.514 12.8293 117.514 11.6282C117.514 10.4272 117.297 9.31935 116.862 8.30468C116.448 7.29001 115.858 6.40994 115.091 5.66447C114.346 4.89829 113.455 4.30813 112.42 3.89398C111.405 3.47983 110.298 3.27275 109.097 3.27275C107.875 3.27275 106.746 3.47983 105.711 3.89398C104.696 4.30813 103.806 4.89829 103.04 5.66447C102.273 6.40994 101.673 7.29001 101.238 8.30468C100.824 9.31935 100.617 10.4272 100.617 11.6282C100.617 12.8293 100.824 13.9371 101.238 14.9518C101.673 15.9665 102.273 16.8569 103.04 17.6231C103.806 18.3685 104.696 18.9483 105.711 19.3625C106.746 19.7766 107.875 19.9837 109.097 19.9837Z" fill="white"/>
<path d="M125.368 22.4997V0.75679H128.474V19.7974H140.246V22.4997H125.368Z" fill="white"/>
<path d="M144.245 22.4997L154.092 0.75679H157.167L167.044 22.4997H163.783L154.992 2.49622H156.235L147.445 22.4997H144.245ZM148.439 17.064L149.277 14.5791H161.515L162.416 17.064H148.439Z" fill="white"/>
<path d="M179.707 22.7482C178.05 22.7482 176.518 22.479 175.11 21.9406C173.722 21.3815 172.511 20.6049 171.475 19.611C170.461 18.5963 169.663 17.416 169.084 16.07C168.504 14.724 168.214 13.2434 168.214 11.6282C168.214 10.013 168.504 8.53246 169.084 7.18647C169.663 5.84049 170.471 4.67051 171.506 3.67655C172.542 2.66188 173.753 1.88535 175.141 1.34695C176.549 0.787852 178.081 0.508301 179.738 0.508301C181.415 0.508301 182.958 0.798206 184.366 1.37802C185.795 1.93712 187.006 2.77577 188 3.89398L185.981 5.85084C185.153 4.98112 184.221 4.33919 183.185 3.92504C182.15 3.49018 181.042 3.27275 179.862 3.27275C178.64 3.27275 177.501 3.47983 176.445 3.89398C175.41 4.30813 174.509 4.88794 173.743 5.63341C172.977 6.37888 172.376 7.2693 171.941 8.30468C171.527 9.31935 171.32 10.4272 171.32 11.6282C171.32 12.8293 171.527 13.9475 171.941 14.9829C172.376 15.9975 172.977 16.8776 173.743 17.6231C174.509 18.3685 175.41 18.9483 176.445 19.3625C177.501 19.7766 178.64 19.9837 179.862 19.9837C181.042 19.9837 182.15 19.7766 183.185 19.3625C184.221 18.9276 185.153 18.265 185.981 17.3746L188 19.3314C187.006 20.4496 185.795 21.2986 184.366 21.8785C182.958 22.4583 181.405 22.7482 179.707 22.7482Z" fill="white"/>
<rect x="44" y="33.5" width="100" height="2" fill="url(#paint0_linear_741_174)"/>
<g clip-path="url(#clip0_741_174)">
<path fill-rule="evenodd" clip-rule="evenodd" d="M55.1134 45.5361C51.7986 46.0091 49.383 47.347 47.6083 49.6927C45.5655 52.3931 44.9474 56.1256 46.0173 59.3007C48.0937 65.4628 55.17 68.2963 60.9901 65.2964C63.8362 63.8293 65.8004 61.2168 66.4958 57.9735C66.6858 57.0877 66.6857 54.9756 66.4956 54.0381C65.637 49.8033 62.4003 46.5702 58.1613 45.7131C57.4237 45.564 55.6428 45.4606 55.1134 45.5361ZM103.051 45.5715C93.6752 46.3944 87.7165 53.0631 90.7257 59.3654C93.871 65.9526 104.994 68.5863 113.093 64.6615C119.783 61.4196 121.531 54.9747 117.025 50.1634C114.027 46.9615 108.375 45.1042 103.051 45.5715ZM71.8949 46.019C69.6217 46.4008 69.1181 49.4177 71.1431 50.5237L71.6357 50.7928L75.4442 50.8143C77.5388 50.8261 79.2525 50.8599 79.2524 50.8895C79.2522 50.919 76.8348 54.1136 73.8803 57.9886C70.9259 61.8636 68.4875 65.1179 68.4615 65.2204C68.3989 65.4683 68.5174 65.7581 68.7409 65.9034C68.9035 66.0091 69.8438 66.0193 77.8202 66.0013L86.7181 65.9813L87.2031 65.7204C88.9963 64.7561 88.9015 62.239 87.04 61.386L86.5665 61.1691L82.1248 61.1315L77.6831 61.0939L81.9574 55.4922C88.5458 46.8581 88.4991 46.9205 88.4991 46.7199C88.4991 46.4221 88.2944 46.116 88.0354 46.0264C87.7544 45.9292 72.4715 45.9222 71.8949 46.019ZM123.619 46.002C123.53 46.0154 123.376 46.1118 123.278 46.2163L123.098 46.4063L123.077 54.9858C123.064 60.581 123.084 63.7095 123.134 63.9799C123.574 66.3381 126.628 66.7792 127.774 64.65L127.948 64.3271L127.969 59.8721C127.981 57.4218 128.015 55.4174 128.045 55.4179C128.075 55.4183 130.999 57.7067 134.542 60.5031C138.085 63.2995 141.117 65.6846 141.28 65.8032C141.651 66.0743 141.996 66.086 142.287 65.8374L142.5 65.6559V56.7581V47.8604L142.303 47.4434C141.386 45.5033 138.784 45.502 137.82 47.4412C137.65 47.7848 137.649 47.7913 137.628 52.2027C137.616 54.6323 137.59 56.6201 137.571 56.6201C137.551 56.6201 134.514 54.2381 130.822 51.3269C127.131 48.4157 124.036 46.0212 123.945 46.0058C123.854 45.9904 123.707 45.9887 123.619 46.002ZM57.046 50.4867C61.3166 51.2538 63.2064 56.2445 60.479 59.5525C57.8924 62.6895 52.9492 62.1684 51.055 58.559C48.9268 54.5038 52.5125 49.6724 57.046 50.4867ZM106.11 50.4568C110.394 50.8598 113.894 52.9183 114.538 55.4136C115.161 57.8259 111.797 60.6566 107.436 61.3889C102.268 62.257 96.6906 60.4004 95.194 57.3133C93.4402 53.696 99.5757 49.8421 106.11 50.4568Z" fill="white"/>
</g>
<defs>
<linearGradient id="paint0_linear_741_174" x1="44" y1="34.5" x2="144" y2="34.5" gradientUnits="userSpaceOnUse">
<stop stop-color="white"/>
<stop offset="1" stop-color="#005BFE"/>
</linearGradient>
<clipPath id="clip0_741_174">
<rect width="97" height="21" fill="white" transform="translate(45.5 45.5)"/>
</clipPath>
</defs>
</svg>
