<svg width="188" height="68" viewBox="0 0 188 68" fill="none" xmlns="http://www.w3.org/2000/svg">
<path d="M11.9672 22.7482C10.3106 22.7482 8.77827 22.479 7.37015 21.9406C5.98275 21.3815 4.77136 20.6049 3.73599 19.611C2.72132 18.5963 1.92408 17.416 1.34427 16.07C0.764457 14.724 0.474552 13.2434 0.474552 11.6282C0.474552 10.013 0.764457 8.53246 1.34427 7.18647C1.92408 5.84049 2.73167 4.67051 3.76705 3.67655C4.80242 2.66188 6.01381 1.88535 7.40122 1.34695C8.80933 0.787852 10.3417 0.508301 11.9983 0.508301C13.6756 0.508301 15.2183 0.798206 16.6264 1.37802C18.0552 1.93712 19.2666 2.77577 20.2606 3.89398L18.2416 5.85084C17.4133 4.98112 16.4815 4.33919 15.4461 3.92504C14.4107 3.49018 13.3029 3.27275 12.1225 3.27275C10.9008 3.27275 9.76187 3.47983 8.70579 3.89398C7.67041 4.30813 6.76964 4.88794 6.00346 5.63341C5.23728 6.37888 4.63676 7.2693 4.20191 8.30468C3.78775 9.31935 3.58068 10.4272 3.58068 11.6282C3.58068 12.8293 3.78775 13.9475 4.20191 14.9829C4.63676 15.9975 5.23728 16.8776 6.00346 17.6231C6.76964 18.3685 7.67041 18.9483 8.70579 19.3625C9.76187 19.7766 10.9008 19.9837 12.1225 19.9837C13.3029 19.9837 14.4107 19.7766 15.4461 19.3625C16.4815 18.9276 17.4133 18.265 18.2416 17.3746L20.2606 19.3314C19.2666 20.4496 18.0552 21.2986 16.6264 21.8785C15.2183 22.4583 13.6652 22.7482 11.9672 22.7482Z" fill="white"/>
<path d="M34.052 22.7482C32.3954 22.7482 30.8527 22.4686 29.4239 21.9095C28.0158 21.3504 26.794 20.5739 25.7587 19.5799C24.7233 18.5653 23.9157 17.3849 23.3359 16.0389C22.7561 14.6929 22.4662 13.2227 22.4662 11.6282C22.4662 10.0338 22.7561 8.56352 23.3359 7.21754C23.9157 5.87155 24.7233 4.70157 25.7587 3.70761C26.794 2.69294 28.0158 1.90606 29.4239 1.34695C30.832 0.787852 32.3747 0.508301 34.052 0.508301C35.7086 0.508301 37.2306 0.787852 38.618 1.34695C40.0261 1.88535 41.2479 2.66188 42.2833 3.67655C43.3393 4.67051 44.1469 5.84049 44.706 7.18647C45.2859 8.53246 45.5758 10.013 45.5758 11.6282C45.5758 13.2434 45.2859 14.724 44.706 16.07C44.1469 17.416 43.3393 18.5963 42.2833 19.611C41.2479 20.6049 40.0261 21.3815 38.618 21.9406C37.2306 22.479 35.7086 22.7482 34.052 22.7482ZM34.052 19.9837C35.2531 19.9837 36.3609 19.7766 37.3756 19.3625C38.411 18.9483 39.3014 18.3685 40.0469 17.6231C40.813 16.8569 41.4032 15.9665 41.8173 14.9518C42.2522 13.9371 42.4696 12.8293 42.4696 11.6282C42.4696 10.4272 42.2522 9.31935 41.8173 8.30468C41.4032 7.29001 40.813 6.40994 40.0469 5.66447C39.3014 4.89829 38.411 4.30813 37.3756 3.89398C36.3609 3.47983 35.2531 3.27275 34.052 3.27275C32.8303 3.27275 31.7017 3.47983 30.6663 3.89398C29.6517 4.30813 28.7613 4.89829 27.9951 5.66447C27.2289 6.40994 26.6284 7.29001 26.1935 8.30468C25.7794 9.31935 25.5723 10.4272 25.5723 11.6282C25.5723 12.8293 25.7794 13.9371 26.1935 14.9518C26.6284 15.9665 27.2289 16.8569 27.9951 17.6231C28.7613 18.3685 29.6517 18.9483 30.6663 19.3625C31.7017 19.7766 32.8303 19.9837 34.052 19.9837Z" fill="white"/>
<path d="M56.6598 22.7482C55.0032 22.7482 53.4191 22.4997 51.9074 22.0027C50.3958 21.485 49.2051 20.8224 48.3354 20.0148L49.4846 17.592C50.3129 18.3168 51.369 18.9173 52.6529 19.3936C53.9367 19.8698 55.2724 20.108 56.6598 20.108C57.9229 20.108 58.948 19.963 59.7348 19.6731C60.5217 19.3832 61.1015 18.9898 61.4743 18.4928C61.847 17.9751 62.0334 17.3953 62.0334 16.7533C62.0334 16.0079 61.7849 15.4074 61.2879 14.9518C60.8116 14.4962 60.1801 14.1338 59.3932 13.8646C58.627 13.5747 57.778 13.3263 56.8461 13.1192C55.9143 12.9121 54.9721 12.674 54.0196 12.4048C53.0877 12.1149 52.2284 11.7525 51.4415 11.3176C50.6753 10.8828 50.0541 10.303 49.5778 9.57819C49.1015 8.83272 48.8634 7.88018 48.8634 6.72055C48.8634 5.60235 49.1533 4.57733 49.7331 3.64549C50.3336 2.69294 51.2448 1.93712 52.4665 1.37802C53.709 0.798206 55.2827 0.508301 57.1878 0.508301C58.451 0.508301 59.7038 0.673961 60.9462 1.00528C62.1887 1.3366 63.2655 1.81287 64.1766 2.4341L63.1516 4.919C62.2197 4.29777 61.2361 3.85256 60.2008 3.58337C59.1654 3.29346 58.1611 3.14851 57.1878 3.14851C55.9661 3.14851 54.9618 3.30381 54.1749 3.61443C53.388 3.92504 52.8082 4.33919 52.4354 4.85688C52.0834 5.37457 51.9074 5.95438 51.9074 6.59631C51.9074 7.36249 52.1455 7.97336 52.6218 8.42893C53.1188 8.88449 53.7504 9.24687 54.5166 9.51607C55.3034 9.78527 56.1628 10.0338 57.0946 10.2615C58.0265 10.4686 58.9583 10.7068 59.8902 10.9759C60.8427 11.2451 61.7021 11.5972 62.4682 12.032C63.2551 12.4669 63.8867 13.0467 64.363 13.7715C64.8392 14.4962 65.0774 15.4281 65.0774 16.567C65.0774 17.6645 64.7771 18.6895 64.1766 19.642C63.5761 20.5739 62.6443 21.3297 61.3811 21.9095C60.1386 22.4686 58.5649 22.7482 56.6598 22.7482Z" fill="white"/>
<path d="M69.6152 22.4997V0.75679H72.1623L81.9155 17.1882H80.5488L90.1778 0.75679H92.7248L92.7559 22.4997H89.774L89.7429 5.44704H90.4574L81.8844 19.8595H80.4556L71.8206 5.44704H72.5971V22.4997H69.6152Z" fill="white"/>
<path d="M109.097 22.7482C107.44 22.7482 105.897 22.4686 104.468 21.9095C103.06 21.3504 101.839 20.5739 100.803 19.5799C99.7678 18.5653 98.9602 17.3849 98.3804 16.0389C97.8006 14.6929 97.5107 13.2227 97.5107 11.6282C97.5107 10.0338 97.8006 8.56352 98.3804 7.21754C98.9602 5.87155 99.7678 4.70157 100.803 3.70761C101.839 2.69294 103.06 1.90606 104.468 1.34695C105.877 0.787852 107.419 0.508301 109.097 0.508301C110.753 0.508301 112.275 0.787852 113.663 1.34695C115.071 1.88535 116.292 2.66188 117.328 3.67655C118.384 4.67051 119.191 5.84049 119.751 7.18647C120.33 8.53246 120.62 10.013 120.62 11.6282C120.62 13.2434 120.33 14.724 119.751 16.07C119.191 17.416 118.384 18.5963 117.328 19.611C116.292 20.6049 115.071 21.3815 113.663 21.9406C112.275 22.479 110.753 22.7482 109.097 22.7482ZM109.097 19.9837C110.298 19.9837 111.405 19.7766 112.42 19.3625C113.455 18.9483 114.346 18.3685 115.091 17.6231C115.858 16.8569 116.448 15.9665 116.862 14.9518C117.297 13.9371 117.514 12.8293 117.514 11.6282C117.514 10.4272 117.297 9.31935 116.862 8.30468C116.448 7.29001 115.858 6.40994 115.091 5.66447C114.346 4.89829 113.455 4.30813 112.42 3.89398C111.405 3.47983 110.298 3.27275 109.097 3.27275C107.875 3.27275 106.746 3.47983 105.711 3.89398C104.696 4.30813 103.806 4.89829 103.04 5.66447C102.273 6.40994 101.673 7.29001 101.238 8.30468C100.824 9.31935 100.617 10.4272 100.617 11.6282C100.617 12.8293 100.824 13.9371 101.238 14.9518C101.673 15.9665 102.273 16.8569 103.04 17.6231C103.806 18.3685 104.696 18.9483 105.711 19.3625C106.746 19.7766 107.875 19.9837 109.097 19.9837Z" fill="white"/>
<path d="M125.368 22.4997V0.75679H128.474V19.7974H140.246V22.4997H125.368Z" fill="white"/>
<path d="M144.245 22.4997L154.092 0.75679H157.167L167.044 22.4997H163.783L154.992 2.49622H156.235L147.445 22.4997H144.245ZM148.439 17.064L149.277 14.5791H161.515L162.416 17.064H148.439Z" fill="white"/>
<path d="M179.707 22.7482C178.05 22.7482 176.518 22.479 175.11 21.9406C173.722 21.3815 172.511 20.6049 171.475 19.611C170.461 18.5963 169.663 17.416 169.084 16.07C168.504 14.724 168.214 13.2434 168.214 11.6282C168.214 10.013 168.504 8.53246 169.084 7.18647C169.663 5.84049 170.471 4.67051 171.506 3.67655C172.542 2.66188 173.753 1.88535 175.141 1.34695C176.549 0.787852 178.081 0.508301 179.738 0.508301C181.415 0.508301 182.958 0.798206 184.366 1.37802C185.795 1.93712 187.006 2.77577 188 3.89398L185.981 5.85084C185.153 4.98112 184.221 4.33919 183.185 3.92504C182.15 3.49018 181.042 3.27275 179.862 3.27275C178.64 3.27275 177.501 3.47983 176.445 3.89398C175.41 4.30813 174.509 4.88794 173.743 5.63341C172.977 6.37888 172.376 7.2693 171.941 8.30468C171.527 9.31935 171.32 10.4272 171.32 11.6282C171.32 12.8293 171.527 13.9475 171.941 14.9829C172.376 15.9975 172.977 16.8776 173.743 17.6231C174.509 18.3685 175.41 18.9483 176.445 19.3625C177.501 19.7766 178.64 19.9837 179.862 19.9837C181.042 19.9837 182.15 19.7766 183.185 19.3625C184.221 18.9276 185.153 18.265 185.981 17.3746L188 19.3314C187.006 20.4496 185.795 21.2986 184.366 21.8785C182.958 22.4583 181.405 22.7482 179.707 22.7482Z" fill="white"/>
<rect x="44" y="33.5" width="100" height="2" fill="url(#paint0_linear_741_184)"/>
<g clip-path="url(#clip0_741_184)">
<path d="M6.70255 67.1037L1.03099 46.1957H4.75136L9.10901 62.2541L13.7792 46.1943L17.2473 46.1957L21.9338 62.3395L26.3111 46.1997L30.0314 46.1943L24.3574 67.1L20.0451 67.0956L15.5147 51.4818L10.98 67.0996L6.70255 67.1037Z" fill="white"/>
<path d="M32.5975 46.2065H36.1389V67.0901H32.5975V46.2065Z" fill="white"/>
<path d="M43.71 63.8143H52.3316V67.0901H40.2418V46.2065H43.71V63.8143Z" fill="white"/>
<path d="M63.2252 46.2306C66.1316 46.2306 68.5496 47.2423 70.4547 49.2415C72.3841 51.2407 73.3611 53.7218 73.3611 56.6604C73.3611 59.575 72.3841 62.0559 70.4547 64.0792C68.5496 66.0785 66.1316 67.0901 63.2252 67.0901H54.8967V46.2065H63.2252V46.2306ZM63.2252 63.8383C65.2279 63.8383 66.8643 63.1639 68.0855 61.815C69.3556 60.4662 69.9906 58.7319 69.9906 56.6844C69.9906 54.5889 69.3556 52.9028 68.0855 51.5539C66.8399 50.205 65.2035 49.5305 63.2252 49.5305H58.3893V63.8383H63.2252Z" fill="white"/>
<path d="M92.0453 61.1243C92.0453 62.8353 91.4352 64.2572 90.1894 65.3899C88.9437 66.5226 87.4781 67.1009 85.671 67.1009H76.6096V46.2065H85.0114C86.7457 46.2065 88.2105 46.785 89.4075 47.8694C90.6292 48.978 91.2153 50.3517 91.2153 51.9904C91.2153 53.822 90.4821 55.2198 89.066 56.2561C90.9219 57.2201 92.0453 58.9553 92.0453 61.1243ZM80.102 49.4359V54.9307H85.0354C86.5746 54.9307 87.7468 53.7256 87.7468 52.1833C87.7468 50.6409 86.5746 49.4359 85.0354 49.4359H80.102ZM85.695 63.8716C87.307 63.8716 88.5775 62.5943 88.5775 60.9556C88.5775 59.3168 87.307 58.0395 85.695 58.0395H80.102V63.8957H85.695V63.8716Z" fill="white"/>
<path d="M98.8106 63.8234H108.19V67.1009H95.3428V46.2065H108.043V49.4841H98.8106V54.9065H107.286V58.16H98.8106V63.8234Z" fill="white"/>
<path d="M123.382 67.1009L118.887 59.4855H114.784V67.1009H111.316V46.2065H119.791C121.696 46.2065 123.308 46.8572 124.603 48.1827C125.921 49.46 126.606 51.0506 126.606 52.9304C126.606 55.5813 124.92 58.0153 122.405 58.9793L127.216 67.1009H123.382ZM114.784 49.4359V56.4248H119.767C121.623 56.4248 123.088 54.8824 123.088 52.9304C123.088 51.0024 121.599 49.4359 119.767 49.4359H114.784Z" fill="white"/>
<path d="M141.918 67.101L137.449 59.4816H133.345V67.101H129.878V46.1958H138.352C140.258 46.1958 141.87 46.8469 143.164 48.173C144.483 49.451 145.167 51.0423 145.167 52.9231C145.167 55.5755 143.482 58.0108 140.966 58.9753L145.777 67.101H141.918ZM133.345 49.4268V56.4194H138.328C140.184 56.4194 141.65 54.8762 141.65 52.9231C141.65 50.9942 140.16 49.4268 138.328 49.4268H133.345Z" fill="white"/>
<path d="M148.318 46.1982H151.787V67.1012H148.318V46.1982Z" fill="white"/>
<path d="M159.357 63.8234H168.736V67.1009H155.889V46.2065H168.589V49.4841H159.357V54.9065H167.832V58.16H159.357V63.8234Z" fill="white"/>
<path d="M171.155 62.3451L174.159 60.6108C175.014 62.9714 176.748 64.1275 179.41 64.1275C182.048 64.1275 183.342 63.0195 183.342 61.3816C183.342 60.5145 182.976 59.8882 182.292 59.4546C181.608 58.997 180.338 58.4911 178.531 57.9612C176.503 57.359 175.502 56.9736 174.085 56.0583C172.718 55.0949 172.034 53.7219 172.034 51.8431C172.034 49.9884 172.693 48.5432 174.037 47.4593C175.356 46.3512 176.968 45.8213 178.848 45.8213C182.243 45.8213 184.856 47.5556 186.225 50.4219L183.293 52.084C182.414 50.157 180.924 49.1694 178.848 49.1694C176.821 49.1694 175.526 50.1811 175.526 51.7708C175.526 53.3124 176.552 54.035 179.801 55.0226C180.607 55.2876 181.193 55.4803 181.559 55.6248C181.95 55.7452 182.463 55.962 183.122 56.227C183.807 56.4919 184.344 56.8051 184.661 57.07C185.785 57.9372 186.981 59.3583 186.835 61.3575C186.835 63.2363 186.151 64.7538 184.759 65.8618C183.391 66.9699 181.584 67.4998 179.337 67.4998C175.234 67.4757 172.254 65.5487 171.155 62.3451Z" fill="white"/>
</g>
<defs>
<linearGradient id="paint0_linear_741_184" x1="44" y1="34.5" x2="144" y2="34.5" gradientUnits="userSpaceOnUse">
<stop stop-color="white"/>
<stop offset="1" stop-color="#AC119E"/>
</linearGradient>
<clipPath id="clip0_741_184">
<rect width="187" height="22" fill="white" transform="translate(0.5 45.5)"/>
</clipPath>
</defs>
</svg>
