<svg width="106" height="107" viewBox="0 0 106 107" fill="none" xmlns="http://www.w3.org/2000/svg">
<path fill-rule="evenodd" clip-rule="evenodd" d="M15.9688 1.21559C12.815 2.77522 12.7846 7.57356 15.9186 9.17099C18.811 10.6453 22.1945 8.77775 22.4261 5.57926C22.6889 1.94828 19.223 -0.393956 15.9688 1.21559ZM91.8332 1.01182C91.256 1.19305 89.7813 2.45346 87.2255 4.9493L83.4666 8.62026L82.1724 8.02447C79.7849 6.92519 77.1806 7.2627 74.9788 8.95632C74.312 9.4695 68.4736 15.0643 62.0046 21.3895L50.243 32.8899L48.6977 31.3303C47.8477 30.4725 47.0654 29.7706 46.9592 29.7706C46.0054 29.7706 45.3642 30.7236 45.7772 31.5272C45.9314 31.8272 47.4852 33.5213 49.23 35.292L52.4028 38.5115L47.4078 43.5299C42.1784 48.784 41.8764 49.1554 41.8764 50.3337C41.8764 51.5318 42.214 52.0828 44.3297 54.338C46.3912 56.5356 47.3399 57.1496 48.6749 57.1496C49.8472 57.1496 50.1744 56.8894 55.4569 51.7528L60.4283 46.9188L63.7022 50.3429C67.0418 53.8355 67.7038 54.2661 68.5039 53.4668C69.0624 52.9088 68.7859 52.1887 67.522 50.9101L66.249 49.6221L71.2808 44.7639C74.0483 42.0919 76.3097 39.8332 76.3061 39.7446C76.3025 39.6559 75.9877 39.2076 75.6065 38.7483L74.9136 37.9133L69.8534 42.8129L64.7935 47.7128L62.1259 44.971C60.6587 43.4633 57.7937 40.4748 55.7593 38.3306L52.0603 34.4316L64.2183 22.5913C70.9049 16.079 76.771 10.5395 77.2538 10.2814C78.4193 9.65824 80.2988 9.65533 81.4652 10.2749C83.4135 11.3097 90.1356 18.9792 90.1356 20.1674C90.1356 20.477 92.009 21.775 92.4557 21.775C92.8384 21.775 92.3388 18.89 91.7604 17.7605L91.1486 16.5657L94.9756 12.6891C98.4445 9.17535 98.8257 8.70507 99.0464 7.66636C99.9434 3.44685 95.9141 -0.270388 91.8332 1.01182ZM19.4553 3.71337C20.2355 4.49258 20.2675 5.88552 19.5235 6.67684C18.7828 7.46429 17.329 7.44781 16.5234 6.64268C15.2155 5.33624 16.138 3.11855 17.9894 3.11855C18.5905 3.11855 19.0445 3.30269 19.4553 3.71337ZM94.9885 3.48344C95.3767 3.68405 95.9832 4.34042 96.3361 4.94228C97.3895 6.73814 97.213 7.07856 93.1022 11.1791L89.5214 14.7507L87.347 12.5682L85.1727 10.3858L88.3212 7.21134C92.5246 2.97293 93.2334 2.57654 94.9885 3.48344ZM2.71181 6.16536C-0.970926 8.08407 -0.501186 13.4041 3.44855 14.5089C7.79333 15.7243 11.0444 10.4319 7.97036 7.14713C6.71999 5.81089 4.27017 5.35369 2.71181 6.16536ZM6.16707 8.75134C6.9397 9.47192 6.91545 10.9337 6.11735 11.7308C4.8614 12.9859 2.59007 12.085 2.59007 10.3316C2.59007 8.28445 4.67758 7.36229 6.16707 8.75134ZM16.384 14.6986C12.603 16.6721 12.6108 22.0985 16.397 24.0162C18.6301 25.1472 20.8881 24.8279 22.5754 23.142C26.8632 18.8581 21.7567 11.8944 16.384 14.6986ZM20.3012 16.8121C21.8428 17.6086 22.2522 19.9925 21.0736 21.3105C19.791 22.7447 17.1534 22.4704 16.2959 20.8138C14.9168 18.1494 17.6343 15.4342 20.3012 16.8121ZM71.9475 20.739C71.2205 20.9798 62.7322 29.6349 62.7358 30.1316C62.7409 30.8001 62.9943 31.1272 63.6697 31.3383C64.4613 31.5852 73.4964 22.671 73.363 21.7745C73.2687 21.1402 72.4793 20.5628 71.9475 20.739ZM83.7659 24.2052C76.6856 25.9817 75.5589 35.5931 82.0475 38.8634C85.0012 40.3517 89.054 39.6527 91.1947 37.2853C92.8282 35.479 93.167 34.5418 93.167 31.8301C93.167 29.1702 92.9718 28.5919 91.4328 26.6935C89.8543 24.7462 86.2596 23.5794 83.7659 24.2052ZM87.9123 27.0092C93.0821 29.5833 91.2953 37.2817 85.528 37.2817C79.8116 37.2817 78.0194 29.5606 83.1436 27.0092C83.9572 26.6044 84.8104 26.3785 85.528 26.3785C86.2456 26.3785 87.0987 26.6044 87.9123 27.0092ZM0.415981 29.5123C-0.138636 30.5479 0.564881 31.4667 1.9125 31.4667H2.58182L2.64657 65.8115C2.70817 98.5102 2.73266 100.211 3.15802 101.306C3.78103 102.909 5.49217 104.722 7.1485 105.535L8.53153 106.214H15.5643C22.5427 106.214 22.6065 106.209 23.8096 105.618C25.5624 104.758 27.1535 103.068 27.7763 101.405L28.296 100.017V65.7417V31.4667H29.1447C29.6703 31.4667 30.1783 31.282 30.4785 30.9821C31.0625 30.3986 31.072 30.2753 30.586 29.5824L30.2086 29.0438H15.4377C1.08264 29.0438 0.659944 29.0568 0.415981 29.5123ZM25.8709 33.5262V35.5856H25.1434C24.3795 35.5856 23.4458 36.3089 23.4458 36.901C23.4458 37.5007 24.1767 38.0085 25.0393 38.0085H25.8709V39.3412V40.6738H25.1019C24.2332 40.6738 23.4458 41.2611 23.4458 41.909C23.4458 42.4808 24.3542 43.0967 25.1974 43.0967C25.852 43.0967 25.8709 43.1337 25.8709 44.4293V45.7619H24.8958C24.1047 45.7619 23.8709 45.8704 23.6582 46.3371C23.2273 47.282 23.7419 47.9425 24.9093 47.9425H25.8709V49.2606V50.5784L24.969 50.6537C22.9926 50.8185 23.0769 53.0306 25.0597 53.0306H25.8709V54.3632V55.6958H25.0393C24.1767 55.6958 23.4458 56.2037 23.4458 56.8034C23.4458 57.3955 24.3795 58.1188 25.1434 58.1188C25.8522 58.1188 25.8709 58.149 25.8709 59.2992V60.4796L24.9086 60.6335C22.9957 60.939 22.9845 62.9646 24.8958 62.9646H25.8709V64.2972V65.6298H25.1019C24.2686 65.6298 23.4458 66.2108 23.4458 66.7991C23.4458 67.456 24.2141 68.0527 25.0597 68.0527H25.8709V69.3853V70.7179H25.0393C23.0343 70.7179 22.9213 72.7316 24.9086 73.049L25.8709 73.2029V74.3833C25.8709 75.5335 25.8522 75.5638 25.1434 75.5638C24.3795 75.5638 23.4458 76.287 23.4458 76.8792C23.4458 77.4788 24.1767 77.9867 25.0393 77.9867H25.8709V79.3193V80.6519H25.0393C23.5755 80.6519 22.9091 81.9448 23.9849 82.6976C24.2812 82.905 24.8269 83.0748 25.1974 83.0748C25.852 83.0748 25.8709 83.1119 25.8709 84.4074V85.74H24.9093C23.7419 85.74 23.2273 86.4005 23.6582 87.3454C23.8709 87.8121 24.1047 87.9206 24.8958 87.9206H25.8709V89.2387V90.5565L24.969 90.6319C22.9926 90.7966 23.0769 93.0088 25.0597 93.0088H25.8709V94.3414V95.674H25.0393C24.1767 95.674 23.4458 96.1818 23.4458 96.7815C23.4458 97.3736 24.3795 98.0969 25.1434 98.0969C25.8144 98.0969 25.8709 98.1633 25.8709 98.9527C25.8709 100.734 24.6258 102.563 22.8437 103.4C21.2744 104.137 9.8549 104.177 8.28902 103.452C6.49688 102.621 5.01515 100.458 5.01515 98.6721C5.01515 98.1919 5.13786 98.0969 5.75869 98.0969C6.86768 98.0969 7.44024 97.6981 7.44024 96.9254C7.44024 96.0151 7.0304 95.674 5.93669 95.674H5.01515V94.3414V93.0088H5.93669C7.0304 93.0088 7.44024 92.6676 7.44024 91.7573C7.44024 90.9847 6.86768 90.5858 5.75869 90.5858C5.01903 90.5858 5.01515 90.5788 5.01515 89.2532V87.9206H5.93669C6.97244 87.9206 7.44024 87.5814 7.44024 86.8303C7.44024 86.0792 6.97244 85.74 5.93669 85.74H5.01515V84.4074C5.01515 83.0818 5.01903 83.0748 5.75869 83.0748C6.86768 83.0748 7.44024 82.676 7.44024 81.9033C7.44024 80.993 7.0304 80.6519 5.93669 80.6519H5.01515V79.3193V77.9867H5.93669C6.98481 77.9867 7.44024 77.647 7.44024 76.8651C7.44024 76.0849 6.8022 75.5638 5.84672 75.5638H5.01515V74.3523C5.01515 73.2278 5.05784 73.1408 5.61003 73.1408C6.67537 73.1408 7.44024 72.6386 7.44024 71.9388C7.44024 71.0588 7.02046 70.7179 5.93669 70.7179H5.01515V69.3853V68.0527H5.93669C7.0304 68.0527 7.44024 67.7116 7.44024 66.8013C7.44024 66.0286 6.86768 65.6298 5.75869 65.6298C5.01903 65.6298 5.01515 65.6228 5.01515 64.2972V62.9646H5.93669C8.00383 62.9646 8.07755 60.8881 6.02011 60.6127L5.01515 60.4779V59.2982C5.01515 58.1437 5.03092 58.1188 5.75869 58.1188C6.86768 58.1188 7.44024 57.7199 7.44024 56.9473C7.44024 56.037 7.0304 55.6958 5.93669 55.6958H5.01515V54.3632V53.0306H5.93669C7.0304 53.0306 7.44024 52.6895 7.44024 51.7792C7.44024 51.0065 6.86768 50.6077 5.75869 50.6077C5.01903 50.6077 5.01515 50.6007 5.01515 49.2751V47.9425H5.93669C6.97244 47.9425 7.44024 47.6033 7.44024 46.8522C7.44024 46.1011 6.97244 45.7619 5.93669 45.7619H5.01515V44.4293C5.01515 43.1037 5.01903 43.0967 5.75869 43.0967C6.86768 43.0967 7.44024 42.6979 7.44024 41.9252C7.44024 41.0149 7.0304 40.6738 5.93669 40.6738H5.01515V39.3412V38.0085H5.93669C6.98481 38.0085 7.44024 37.6689 7.44024 36.887C7.44024 36.1068 6.8022 35.5856 5.84672 35.5856H5.01515V33.5262V31.4667H15.443H25.8709V33.5262ZM96.6994 36.6384C96.4239 37.2809 96.1983 37.8353 96.1983 37.8704C96.1983 37.9056 96.8078 38.844 97.5525 39.9558C100.111 43.7751 101.907 48.0738 102.913 52.7883C103.522 55.6425 103.525 62.9152 102.919 65.9162C100.677 77.0153 93.2582 86.3462 83.0085 90.9582L80.9795 91.8712L80.6186 93.167C80.2032 94.658 80.1777 94.6464 82.1879 93.8905C93.8087 89.5198 102.491 79.1972 105.215 66.5137C105.994 62.8849 105.999 56.1836 105.225 52.3697C104.025 46.4522 101.298 40.5575 97.6861 36.0731L97.2006 35.4705L96.6994 36.6384ZM56.4054 42.7243C57.6431 43.9852 58.6183 45.1101 58.5722 45.224C58.3064 45.8801 48.9063 54.7267 48.4749 54.7267C47.9103 54.7267 44.3015 50.9598 44.3015 50.3705C44.3015 50.0388 53.6915 40.4315 54.0154 40.4315C54.0923 40.4315 55.1679 41.4631 56.4054 42.7243ZM89.4944 43.2912L88.4892 43.6699L89.4105 44.8976C95.7109 53.2947 95.9047 65.4524 89.8808 74.3821C87.6713 77.6572 83.245 81.4938 80.0221 82.9272L79.0028 83.3806L79.5062 84.3786C79.7832 84.9274 80.0453 85.4163 80.0887 85.465C80.2335 85.6271 83.9337 83.533 85.2855 82.5236C95.1592 75.1519 99.1017 62.6067 95.2011 50.9721C94.1591 47.8638 91.3166 42.78 90.6788 42.8835C90.5801 42.8994 90.0471 43.0831 89.4944 43.2912ZM32.6611 73.4922V74.5704L34.0517 74.6431L35.4422 74.7157L36.6203 76.8964C40.2664 83.6454 45.7736 89.0085 52.5468 92.4059C54.7051 93.4885 57.4014 94.532 57.3863 94.2786C57.3805 94.18 57.2372 93.5743 57.0679 92.9332L56.7602 91.7673L54.2914 90.5854C49.5254 88.3035 45.1278 84.7868 41.9402 80.7083C40.5012 78.8672 38.2388 75.2449 38.2388 74.7821C38.2388 74.6789 39.5942 74.5946 41.2508 74.5946H44.2627L45.532 76.3512C48.0257 79.8022 52.0089 83.1749 55.8733 85.1074C57.4913 85.9164 57.4552 85.9229 58.037 84.7229L58.53 83.706L57.0623 83.0125C55.3243 82.1912 53.171 80.7597 51.3593 79.2209C49.9719 78.0424 47.4541 75.2071 47.4541 74.8231C47.4541 74.6905 48.9114 74.5946 50.922 74.5946C54.5611 74.5946 54.9719 74.4839 54.9719 73.5043C54.9719 72.4152 54.96 72.414 43.5255 72.414H32.6611V73.4922ZM66.4658 82.6915C63.095 83.7457 60.8101 87.1625 61.096 90.7213C61.7352 98.6794 72.352 100.705 75.8812 93.5423C78.8818 87.4528 72.9823 80.6538 66.4658 82.6915ZM71.1855 85.238C75.2175 87.2931 75.3564 92.9494 71.4242 94.9643C66.1023 97.6913 60.8978 91.1249 64.7571 86.5527C66.2003 84.8428 69.2047 84.2284 71.1855 85.238ZM79.0651 96.6431C78.6875 97.2428 78.3412 97.8151 78.2954 97.9152C78.2498 98.0152 81.3588 98.1003 85.2047 98.1046C90.3187 98.1102 92.3003 98.1916 92.5818 98.4075C93.7422 99.2977 93.9217 101.957 92.9029 103.166L92.275 103.912L67.2576 103.904C47.9741 103.898 42.1519 103.829 41.8553 103.601C40.7073 102.721 40.4898 99.7025 41.5018 98.6917L42.0969 98.0969H50.8282H59.5594L58.8057 96.8854L58.052 95.674H50.0407C40.8928 95.674 40.5419 95.7394 39.2535 97.6845C38.6603 98.5803 38.6026 98.8744 38.6026 101.004C38.6026 103.641 38.9799 104.504 40.6241 105.63L41.477 106.214L66.3519 106.285C80.0332 106.324 91.6952 106.29 92.2678 106.208C95.3394 105.77 96.9804 101.457 95.3323 98.1536C94.1928 95.8688 93.9976 95.8147 86.3379 95.674L79.7514 95.5528L79.0651 96.6431Z" fill="#E71A95"/>
</svg>
