<svg width="104" height="107" viewBox="0 0 104 107" fill="none" xmlns="http://www.w3.org/2000/svg">
<path fill-rule="evenodd" clip-rule="evenodd" d="M10.4877 0.831496C9.34544 0.995568 7.96165 1.44425 6.71938 2.05351C4.63651 3.07491 3.0249 4.91551 2.42018 6.96339C1.39851 10.4236 0.975814 27.4445 1.77573 32.9141C2.06082 34.8635 2.89441 37.0704 3.92161 38.5947L4.34048 39.2165L3.53153 63.8432L2.72259 88.4699L2.31127 88.9995C1.8075 89.648 1.06018 91.1957 0.802295 92.1242C0.532506 93.0957 0.532612 95.5893 0.802401 96.6259C2.4086 102.796 9.6588 105.539 14.9506 101.979L15.3756 101.693L40.0857 102.194L64.7958 102.695L65.6079 103.276C69.1135 105.783 73.1837 106.41 85.134 106.285C90.8584 106.225 95.3301 106.011 96.7561 105.73C100.256 105.038 102.544 102.876 103.482 99.3714C103.887 97.8606 103.909 94.9195 103.527 93.3953C102.391 88.8568 99.838 86.4382 95.7067 85.9872C89.3179 85.2898 80.7594 85.1653 73.4988 85.6639C70.3196 85.8824 68.1487 86.5388 65.9281 87.9529L65.3704 88.3081L51.2113 88.0385C43.4238 87.8902 36.8626 87.736 36.6307 87.6957C36.2148 87.6235 36.3807 87.5241 48.7973 80.4013L61.3853 73.18L62.5011 73.2376C65.6068 73.3977 68.4109 72.5381 73.3925 69.8986C79.0582 66.8968 88.5499 60.7632 90.4581 58.8708C94.105 55.2541 93.7641 49.8013 89.6156 45.3947C86.8597 42.4674 83.4299 41.3617 80.2748 42.3835C76.7415 43.5279 63.9615 50.908 58.7953 54.7872C56.9666 56.1604 55.367 58.0764 54.4602 59.9799L54.088 60.7613L41.4358 68.0229C34.4772 72.0169 28.7744 75.2723 28.7628 75.2572C28.7514 75.2421 31.9498 69.4549 35.8705 62.3967L42.9991 49.5637L43.5853 49.2789C46.8746 47.6807 49.3456 44.6688 53.3654 37.3574C55.6233 33.2506 59.6356 24.8765 60.2027 23.087C61.6577 18.4956 59.6997 14.5333 54.7973 12.1489C50.485 10.0513 46.2368 10.4277 43.5282 13.1472C41.2419 15.4427 35.2495 25.9389 31.8693 33.5687C30.3803 36.9296 30.0277 38.4831 30.1191 41.2799L30.1728 42.9237L24.1024 53.8699C18.3213 64.2946 18.0308 64.7943 18.0058 64.3562C17.9913 64.1031 18.1628 58.3909 18.3868 51.6622L18.7941 39.4283L19.338 38.6316C21.8333 34.976 22.5565 30.1851 22.4078 18.297C22.2751 7.70018 22.0265 6.16718 20.0479 3.74582C18.1922 1.47497 14.2896 0.285365 10.4877 0.831496ZM14.6782 3.22129C17.2874 3.74137 18.9363 5.27691 19.58 7.78598C19.8199 8.72126 19.8554 9.55497 19.6521 9.47722C14.8998 7.6593 9.3447 7.69351 4.43685 9.57086C4.09119 9.70305 4.55151 7.53463 5.08311 6.52615C6.5006 3.83712 10.631 2.41449 14.6782 3.22129ZM15.2693 10.5075C16.5492 10.7345 17.9429 11.1179 19.0415 11.5453L19.9447 11.8968L20.0284 13.7464C20.1703 16.8769 20.0514 27.0936 19.8514 28.9692C19.6551 30.8096 19.4067 32.5306 19.2448 33.1716L19.1343 33.609L17.9988 33.3255C15.6509 32.7397 14.9263 32.6567 12.1347 32.654C9.21464 32.6512 7.91553 32.8175 5.54672 33.4971C4.87464 33.69 4.3171 33.8403 4.30764 33.8311C4.19628 33.7227 3.9351 31.836 3.82874 30.372C3.55735 26.6361 3.67413 15.9452 4.02223 12.6555C4.09661 11.9531 4.11032 11.9438 6.09458 11.2535C8.81809 10.3061 12.4624 10.0097 15.2693 10.5075ZM51.0769 13.2673C51.9124 13.4437 53.1559 13.8311 53.2956 13.9585C53.4291 14.0803 52.1497 16.1342 51.9689 16.0885C50.7698 15.7856 50.1918 15.7307 49.4327 15.8475C45.2258 16.4949 43.44 21.4523 46.3033 24.535L46.8837 25.1601L45.1458 28.2692C42.8661 32.3475 40.8688 36.044 38.4869 40.5934C37.4195 42.6324 36.2383 44.8856 35.8623 45.6004L35.1786 46.9001L34.8575 46.6723C34.0164 46.0753 32.9201 44.2234 32.5755 42.8178C32.182 41.2124 32.3557 38.7964 33.0071 36.8164C34.6322 31.8765 43.1352 16.4856 45.3222 14.5255C46.7216 13.2713 48.8708 12.8015 51.0769 13.2673ZM56.4238 15.9008C58.1116 17.5143 58.7479 19.7519 58.1597 22.0042C57.6776 23.8501 53.0034 33.4349 50.223 38.2789C46.2272 45.2405 43.392 47.859 39.5562 48.1304C38.8176 48.1826 37.1054 48.0295 37.1054 47.9113C37.1054 47.8649 39.6792 42.9199 41.3828 39.6931C43.189 36.2721 46.2222 30.7056 47.8184 27.8829L48.7768 26.1881L49.6795 26.2239C54.3937 26.411 57.0824 21.5054 54.2752 17.8394L53.9003 17.3499L54.6001 16.1845C55.4123 14.8319 55.3207 14.8461 56.4238 15.9008ZM51.4998 18.2437C54.4082 19.659 53.3564 24.104 50.1252 24.0525C47.3501 24.0084 46.018 20.7028 48.0106 18.8059C48.8924 17.9666 50.4234 17.7199 51.4998 18.2437ZM15.4287 34.9768C16.6255 35.174 18.2084 35.5496 18.3329 35.6662C18.4479 35.7738 18.0842 36.4815 17.4187 37.4446C14.7663 41.2836 10.0337 41.7436 6.76529 38.48C5.93945 37.6554 5.01543 36.3182 5.01543 35.9479C5.01543 35.7444 8.13431 35.0196 9.85017 34.8245C11.0315 34.6902 14.2158 34.7772 15.4287 34.9768ZM8.19318 42.2377C9.45468 42.7719 10.163 42.9122 11.6034 42.9131C13.1853 42.9142 13.9716 42.74 15.4022 42.0721L16.385 41.6131L16.3893 41.8976C16.4 42.6181 14.9803 86.2737 14.9392 86.4854C14.8932 86.7225 14.8845 86.7206 14.1247 86.3092C11.6643 84.9772 8.42174 84.8704 5.97164 86.0409C5.5464 86.2441 5.1746 86.3866 5.14559 86.3577C5.08641 86.2987 6.4939 41.9999 6.5669 41.6262L6.61334 41.3877L7.05293 41.6643C7.29466 41.8164 7.80778 42.0744 8.19318 42.2377ZM84.6252 44.6031C88.1726 45.9341 91.1906 50.6251 90.6539 53.974C90.4884 55.0071 90.6771 54.9801 88.0561 54.3461C86.7704 54.0351 84.6431 53.5388 83.3288 53.2434C82.0146 52.9479 80.9213 52.6883 80.8993 52.6665C80.8493 52.6165 80.4676 46.2245 80.4625 45.3502L80.4587 44.705L81.0697 44.5316C82.0306 44.2591 82.0557 44.256 83.0103 44.2974C83.6408 44.3247 84.1303 44.4174 84.6252 44.6031ZM31.6301 46.3752C33.1647 48.8536 35.9102 50.3853 38.8714 50.4152C39.4196 50.4207 39.8681 50.442 39.8681 50.4626C39.8681 50.5074 18.3504 89.2957 18.0905 89.7191L17.909 90.0151L17.5388 89.4543L17.1686 88.8936L17.48 79.4209L17.7916 69.9483L24.4998 57.8441C28.1894 51.1868 31.2133 45.7379 31.2195 45.7353C31.2258 45.7327 31.4106 46.0206 31.6301 46.3752ZM78.4978 49.0491C78.5929 50.7286 78.6431 52.1303 78.6096 52.1639C78.5759 52.1973 77.6034 52.0539 76.4486 51.845C75.2937 51.6363 73.3447 51.3159 72.1174 51.1331C70.8901 50.9503 69.744 50.7669 69.5704 50.7253C69.2769 50.6551 69.3994 50.5678 71.3237 49.4759C75.3342 47.2 78.2683 45.6855 78.3026 45.8736C78.3148 45.9407 78.4026 47.3695 78.4978 49.0491ZM69.1697 52.8848C73.8006 53.5199 79.0598 54.4638 83.5933 55.4736C86.3341 56.084 89.0115 56.7604 89.1187 56.8694C89.3221 57.0762 87.9911 58.1092 84.6635 60.3274C80.8533 62.8673 78.6373 64.2669 78.4257 64.2669C78.3443 64.2669 77.4524 64.0759 76.4438 63.8424C71.4342 62.6829 65.2366 61.5867 59.9509 60.9252C58.2268 60.7093 56.7998 60.5184 56.7796 60.5008C56.6006 60.3449 58.5234 57.9721 59.499 57.1449C60.8154 56.0288 65.9631 52.5237 66.3007 52.5136C66.3744 52.5114 67.6654 52.6784 69.1697 52.8848ZM61.5876 63.3169C62.8091 63.4882 63.8202 63.641 63.8346 63.6563C63.8856 63.7111 64.275 70.8879 64.2299 70.9397C64.1143 71.0724 61.6537 70.9562 60.9603 70.7854C57.6101 69.9598 55.5404 67.2584 55.7299 63.9584C55.8156 62.4649 55.63 62.5765 57.6438 62.8077C58.5913 62.9165 60.3659 63.1456 61.5876 63.3169ZM53.5776 66.2264C54.0227 68.5474 55.6352 70.7393 57.7998 71.9662L58.3583 72.2828L39.0983 83.3317C28.5054 89.4085 19.6472 94.4898 19.4134 94.6235L18.9884 94.8666L18.9585 93.8927L18.9286 92.9186L22.7387 86.0569L26.5487 79.1951L39.9293 71.5159L53.3097 63.8367L53.3827 64.7138C53.4229 65.1962 53.5106 65.8769 53.5776 66.2264ZM68.5262 64.4205C69.6247 64.6214 71.456 64.9808 72.5956 65.219C73.7352 65.4572 74.9175 65.7043 75.223 65.7681C75.5284 65.8317 75.7555 65.9209 75.7274 65.9661C75.4727 66.3769 68.9892 69.6201 67.1564 70.2535L66.4458 70.4992L66.3881 69.9516C66.3563 69.6504 66.2802 68.3793 66.219 67.1267C66.1577 65.8742 66.0845 64.6707 66.0563 64.4522C65.9911 63.9472 65.9425 63.9477 68.5262 64.4205ZM11.8919 87.8294C14.8526 88.7678 16.8921 91.7517 16.6709 94.8212C16.2501 100.658 9.24769 103.398 5.02616 99.3771C3.55789 97.9787 2.87327 96.421 2.86253 94.4545C2.83671 89.7039 7.35247 86.3906 11.8919 87.8294ZM83.5927 87.6927C83.6283 87.7281 83.4115 88.0842 83.1109 88.4842C81.1292 91.1208 80.1146 93.8426 79.8194 97.3143C79.5046 101.017 78.9437 102.476 77.4394 103.509C76.7929 103.953 76.4691 103.973 74.1466 103.715C70.56 103.315 68.3728 102.587 66.542 101.183C63.595 98.9223 62.8598 95.1865 64.7796 92.228C66.149 90.118 68.6188 88.6708 71.7311 88.1547C74.0343 87.7727 83.3106 87.4114 83.5927 87.6927ZM89.9969 87.8473L90.769 87.9058L90.4621 88.2938C89.3675 89.6783 88.3217 91.6183 87.6978 93.4217C87.2407 94.7432 87.1216 95.3906 86.8933 97.791C86.562 101.275 85.9757 102.71 84.4709 103.72L83.9149 104.093H81.9742C80.907 104.093 80.0336 104.066 80.0336 104.033C80.0336 104 80.1523 103.818 80.2975 103.629C81.2273 102.413 81.6614 100.767 82.0017 97.1643C82.315 93.848 83.4562 91.291 85.8242 88.5999L86.6418 87.6706L87.9334 87.7298C88.6437 87.7624 89.5723 87.8152 89.9969 87.8473ZM95.0692 88.2068C95.5951 88.2651 96.1553 88.3396 96.3141 88.3725L96.6026 88.4322L95.9595 89.2727C94.158 91.6272 93.1242 94.1432 92.8404 96.8643C92.4073 101.016 92.194 101.799 91.2091 102.848C90.3924 103.719 89.7229 103.987 88.3706 103.987H87.2447L87.4707 103.671C88.3125 102.493 88.823 100.592 89.0644 97.738C89.2191 95.9089 89.3303 95.2891 89.6978 94.2052C90.3421 92.3054 91.5513 90.2493 92.841 88.8607C93.6308 88.0103 93.5386 88.0373 95.0692 88.2068ZM100.122 90.9906C101.164 92.572 101.707 95.1119 101.491 97.3881C101.181 100.648 99.5936 102.671 96.7693 103.405C96.2341 103.544 93.4352 103.824 93.3572 103.746C93.3435 103.732 93.5447 103.293 93.8041 102.769C94.3769 101.612 94.6374 100.48 94.8564 98.1959C95.0668 96.0007 95.1767 95.4301 95.598 94.3413C96.2295 92.7093 96.9775 91.4216 98.0738 90.0793L98.6626 89.3585L99.1902 89.8674C99.4802 90.1474 99.8998 90.6528 100.122 90.9906ZM49.2188 90.2834C56.787 90.4318 62.9955 90.5694 63.0153 90.5892C63.0352 90.6089 62.8584 90.9505 62.6223 91.3481C62.3863 91.7458 62.0353 92.524 61.8424 93.0775C61.147 95.0722 61.4146 98.0522 62.4498 99.8451C62.5976 100.101 62.7055 100.323 62.6894 100.338C62.6682 100.358 17.7068 99.4623 17.4612 99.4369C17.4394 99.4346 17.4748 99.3688 17.54 99.2906C17.6051 99.2125 17.799 98.8704 17.9709 98.5307L18.2834 97.913L25.2239 93.9146L32.1644 89.9162L33.8114 89.9649C34.7172 89.9917 41.6506 90.135 49.2188 90.2834Z" fill="#E71A95"/>
</svg>
