<svg width="27" height="61" viewBox="0 0 27 61" fill="none" xmlns="http://www.w3.org/2000/svg">
<path d="M12.642 60.5V5.46L18.662 11.48H0.602V0.299996H26.574V60.5H12.642Z" fill="#E71A95"/>
<path d="M12.642 60.5H11.642V61.5H12.642V60.5ZM12.642 5.46L13.3491 4.75289L11.642 3.04578V5.46H12.642ZM18.662 11.48V12.48H21.0762L19.3691 10.7729L18.662 11.48ZM0.602 11.48H-0.398V12.48H0.602V11.48ZM0.602 0.299995V-0.700005H-0.398V0.299995H0.602ZM26.574 0.299995H27.574V-0.700005H26.574V0.299995ZM26.574 60.5V61.5H27.574V60.5H26.574ZM13.642 60.5V5.46H11.642V60.5H13.642ZM11.9349 6.1671L17.9549 12.1871L19.3691 10.7729L13.3491 4.75289L11.9349 6.1671ZM18.662 10.48H0.602V12.48H18.662V10.48ZM1.602 11.48V0.299995H-0.398V11.48H1.602ZM0.602 1.3H26.574V-0.700005H0.602V1.3ZM25.574 0.299995V60.5H27.574V0.299995H25.574ZM26.574 59.5H12.642V61.5H26.574V59.5Z" fill="#E71A95"/>
</svg>
