<svg width="49" height="62" viewBox="0 0 49 62" fill="none" xmlns="http://www.w3.org/2000/svg">
<path d="M2.838 61.5V52.47L26.058 30.54C27.8927 28.8773 29.24 27.3867 30.1 26.068C30.96 24.7493 31.5333 23.5453 31.82 22.456C32.164 21.3667 32.336 20.3633 32.336 19.446C32.336 17.038 31.5047 15.2033 29.842 13.942C28.2367 12.6233 25.8573 11.964 22.704 11.964C20.1813 11.964 17.8307 12.4513 15.652 13.426C13.5307 14.4007 11.7247 15.92 10.234 17.984L0.086 11.448C2.37933 8.008 5.59 5.28466 9.718 3.278C13.846 1.27133 18.6047 0.267999 23.994 0.267999C28.466 0.267999 32.3647 1.01333 35.69 2.504C39.0727 3.93733 41.6813 5.97267 43.516 8.61C45.408 11.2473 46.354 14.4007 46.354 18.07C46.354 20.0193 46.096 21.9687 45.58 23.918C45.1213 25.81 44.1467 27.8167 42.656 29.938C41.2227 32.0593 39.1013 34.4387 36.292 37.076L17.028 55.222L14.362 50.148H48.332V61.5H2.838Z" fill="#E71A95"/>
<path d="M2.838 61.5H1.838V62.5H2.838V61.5ZM2.838 52.47L2.15138 51.743L1.838 52.039V52.47H2.838ZM26.058 30.54L25.3865 29.799L25.3789 29.8059L25.3714 29.813L26.058 30.54ZM30.1 26.068L30.9376 26.6143L30.1 26.068ZM31.82 22.456L30.8664 22.1549L30.8591 22.178L30.8529 22.2015L31.82 22.456ZM29.842 13.942L29.2073 14.7147L29.2222 14.727L29.2376 14.7387L29.842 13.942ZM15.652 13.426L15.2436 12.5131L15.2345 12.5173L15.652 13.426ZM10.234 17.984L9.69252 18.8247L10.4896 19.3381L11.0447 18.5695L10.234 17.984ZM0.086 11.448L-0.74605 10.8933L-1.30959 11.7386L-0.455477 12.2887L0.086 11.448ZM9.718 3.278L9.28081 2.37863H9.28081L9.718 3.278ZM35.69 2.504L35.2809 3.41651L35.2904 3.42072L35.2999 3.42475L35.69 2.504ZM43.516 8.61L42.6951 9.18106L42.6992 9.18702L42.7035 9.19291L43.516 8.61ZM45.58 23.918L44.6133 23.6621L44.6106 23.6722L44.6082 23.6824L45.58 23.918ZM42.656 29.938L41.8378 29.3631L41.8325 29.3705L41.8274 29.3781L42.656 29.938ZM36.292 37.076L35.6076 36.3469L35.6063 36.3481L36.292 37.076ZM17.028 55.222L16.1428 55.6871L16.7552 56.8528L17.7137 55.9499L17.028 55.222ZM14.362 50.148V49.148H12.7069L13.4768 50.6131L14.362 50.148ZM48.332 50.148H49.332V49.148H48.332V50.148ZM48.332 61.5V62.5H49.332V61.5H48.332ZM3.838 61.5V52.47H1.838V61.5H3.838ZM3.52462 53.197L26.7446 31.267L25.3714 29.813L2.15138 51.743L3.52462 53.197ZM26.7295 31.281C28.5959 29.5896 30.0121 28.0334 30.9376 26.6143L29.2624 25.5217C28.4679 26.7399 27.1895 28.1651 25.3865 29.799L26.7295 31.281ZM30.9376 26.6143C31.8347 25.2387 32.4647 23.9355 32.7871 22.7105L30.8529 22.2015C30.602 23.1552 30.0853 24.2599 29.2624 25.5217L30.9376 26.6143ZM32.7736 22.7571C33.1411 21.5932 33.336 20.487 33.336 19.446H31.336C31.336 20.2397 31.1869 21.1401 30.8664 22.1549L32.7736 22.7571ZM33.336 19.446C33.336 16.7798 32.3988 14.6265 30.4464 13.1453L29.2376 14.7387C30.6105 15.7802 31.336 17.2962 31.336 19.446H33.336ZM30.4767 13.1693C28.6204 11.6444 25.9741 10.964 22.704 10.964V12.964C25.7405 12.964 27.8529 13.6022 29.2073 14.7147L30.4767 13.1693ZM22.704 10.964C20.0488 10.964 17.558 11.4778 15.2436 12.5132L16.0604 14.3388C18.1033 13.4249 20.3139 12.964 22.704 12.964V10.964ZM15.2345 12.5173C12.9425 13.5704 11.0056 15.2077 9.42332 17.3985L11.0447 18.5695C12.4438 16.6323 14.1189 15.2309 16.0695 14.3347L15.2345 12.5173ZM10.7755 17.1433L0.627477 10.6073L-0.455477 12.2887L9.69252 18.8247L10.7755 17.1433ZM0.91805 12.0027C3.10217 8.72652 6.16904 6.11508 10.1552 4.17736L9.28081 2.37863C5.01096 4.45425 1.6565 7.28947 -0.74605 10.8933L0.91805 12.0027ZM10.1552 4.17736C14.1252 2.24751 18.7299 1.268 23.994 1.268V-0.732C18.4794 -0.732 13.5668 0.295155 9.28081 2.37863L10.1552 4.17736ZM23.994 1.268C28.3563 1.268 32.11 1.99506 35.2809 3.41651L36.0991 1.59149C32.6193 0.0316029 28.5757 -0.732 23.994 -0.732V1.268ZM35.2999 3.42475C38.5344 4.7953 40.983 6.71987 42.6951 9.18106L44.3369 8.03893C42.3797 5.22546 39.611 3.07936 36.0802 1.58324L35.2999 3.42475ZM42.7035 9.19291C44.458 11.6386 45.354 14.5814 45.354 18.07H47.354C47.354 14.22 46.358 10.8561 44.3285 8.02709L42.7035 9.19291ZM45.354 18.07C45.354 19.93 45.108 21.7934 44.6133 23.6621L46.5467 24.1739C47.084 22.1439 47.354 20.1086 47.354 18.07H45.354ZM44.6082 23.6824C44.187 25.4196 43.279 27.3121 41.8378 29.3631L43.4742 30.5129C45.0143 28.3212 46.0557 26.2004 46.5519 24.1536L44.6082 23.6824ZM41.8274 29.3781C40.4509 31.4154 38.387 33.7377 35.6076 36.3469L36.9764 37.8051C39.8157 35.1397 41.9944 32.7033 43.4846 30.4979L41.8274 29.3781ZM35.6063 36.3481L16.3423 54.4941L17.7137 55.9499L36.9777 37.8039L35.6063 36.3481ZM17.9132 54.7569L15.2472 49.6829L13.4768 50.6131L16.1428 55.6871L17.9132 54.7569ZM14.362 51.148H48.332V49.148H14.362V51.148ZM47.332 50.148V61.5H49.332V50.148H47.332ZM48.332 60.5H2.838V62.5H48.332V60.5Z" fill="#E71A95"/>
</svg>
