<svg width="49" height="62" viewBox="0 0 49 62" fill="none" xmlns="http://www.w3.org/2000/svg">
<path d="M23.876 61.532C19.6907 61.532 15.534 60.9873 11.406 59.898C7.278 58.7513 3.78067 57.146 0.914 55.082L6.332 44.418C8.62533 46.0807 11.2913 47.3993 14.33 48.374C17.3687 49.3487 20.436 49.836 23.532 49.836C27.0293 49.836 29.7813 49.148 31.788 47.772C33.7947 46.396 34.798 44.504 34.798 42.096C34.798 39.8027 33.9093 37.9967 32.132 36.678C30.3547 35.3593 27.488 34.7 23.532 34.7H17.168V25.498L33.938 6.492L35.486 11.48H3.924V0.299996H46.064V9.33L29.38 28.336L22.328 24.294H26.37C33.766 24.294 39.356 25.9567 43.14 29.282C46.924 32.6073 48.816 36.8787 48.816 42.096C48.816 45.4787 47.9273 48.6607 46.15 51.642C44.3727 54.566 41.6493 56.9453 37.98 58.78C34.3107 60.6147 29.6093 61.532 23.876 61.532Z" fill="#E71A95"/>
<path d="M11.406 59.898L11.1383 60.8616L11.1508 60.8649L11.406 59.898ZM0.914 55.082L0.0224672 54.629L-0.365623 55.3929L0.329695 55.8935L0.914 55.082ZM6.332 44.418L6.91897 43.6084L5.97089 42.921L5.44047 43.965L6.332 44.418ZM14.33 48.374L14.0246 49.3262L14.33 48.374ZM31.788 47.772L32.3535 48.5967L31.788 47.772ZM17.168 34.7H16.168V35.7H17.168V34.7ZM17.168 25.498L16.4182 24.8364L16.168 25.1199V25.498H17.168ZM33.938 6.492L34.8931 6.1956L34.3656 4.49596L33.1882 5.83038L33.938 6.492ZM35.486 11.48V12.48H36.8434L36.4411 11.1836L35.486 11.48ZM3.924 11.48H2.924V12.48H3.924V11.48ZM3.924 0.299995V-0.700005H2.924V0.299995H3.924ZM46.064 0.299995H47.064V-0.700005H46.064V0.299995ZM46.064 9.33L46.8155 9.9897L47.064 9.70665V9.33H46.064ZM29.38 28.336L28.8827 29.2036L29.5921 29.6102L30.1315 28.9957L29.38 28.336ZM22.328 24.294V23.294H18.5724L21.8307 25.1616L22.328 24.294ZM43.14 29.282L42.4799 30.0332L43.14 29.282ZM46.15 51.642L47.0046 52.1614L47.0089 52.1541L46.15 51.642ZM37.98 58.78L37.5328 57.8856L37.98 58.78ZM23.876 60.532C19.7785 60.532 15.7076 59.9989 11.6612 58.9311L11.1508 60.8649C15.3604 61.9758 19.6028 62.532 23.876 62.532V60.532ZM11.6736 58.9345C7.63587 57.8129 4.25126 56.2526 1.4983 54.2705L0.329695 55.8935C3.31007 58.0394 6.92013 59.6898 11.1384 60.8615L11.6736 58.9345ZM1.80553 55.535L7.22353 44.871L5.44047 43.965L0.0224672 54.629L1.80553 55.535ZM5.74503 45.2276C8.13416 46.9597 10.8977 48.3233 14.0246 49.3262L14.6354 47.4218C11.685 46.4754 9.11651 45.2016 6.91897 43.6084L5.74503 45.2276ZM14.0246 49.3262C17.1589 50.3316 20.3292 50.836 23.532 50.836V48.836C20.5428 48.836 17.5784 48.3658 14.6354 47.4218L14.0246 49.3262ZM23.532 50.836C27.1468 50.836 30.1222 50.1268 32.3535 48.5967L31.2225 46.9473C29.4405 48.1692 26.9119 48.836 23.532 48.836V50.836ZM32.3535 48.5967C34.6287 47.0366 35.798 44.8378 35.798 42.096H33.798C33.798 44.1702 32.9606 45.7554 31.2225 46.9473L32.3535 48.5967ZM35.798 42.096C35.798 39.4996 34.7701 37.3901 32.7278 35.8749L31.5362 37.4811C33.0486 38.6032 33.798 40.1058 33.798 42.096H35.798ZM32.7278 35.8749C30.6881 34.3615 27.5537 33.7 23.532 33.7V35.7C27.4223 35.7 30.0212 36.3571 31.5362 37.4811L32.7278 35.8749ZM23.532 33.7H17.168V35.7H23.532V33.7ZM18.168 34.7V25.498H16.168V34.7H18.168ZM17.9178 26.1596L34.6878 7.15362L33.1882 5.83038L16.4182 24.8364L17.9178 26.1596ZM32.9829 6.7884L34.5309 11.7764L36.4411 11.1836L34.8931 6.1956L32.9829 6.7884ZM35.486 10.48H3.924V12.48H35.486V10.48ZM4.924 11.48V0.299995H2.924V11.48H4.924ZM3.924 1.3H46.064V-0.700005H3.924V1.3ZM45.064 0.299995V9.33H47.064V0.299995H45.064ZM45.3125 8.67029L28.6285 27.6763L30.1315 28.9957L46.8155 9.9897L45.3125 8.67029ZM29.8773 27.4684L22.8253 23.4264L21.8307 25.1616L28.8827 29.2036L29.8773 27.4684ZM22.328 25.294H26.37V23.294H22.328V25.294ZM26.37 25.294C33.6343 25.294 38.9475 26.9289 42.4799 30.0332L43.8001 28.5308C39.7645 24.9844 33.8977 23.294 26.37 23.294V25.294ZM42.4799 30.0332C46.0392 33.161 47.816 37.1546 47.816 42.096H49.816C49.816 36.6028 47.8088 32.0536 43.8001 28.5308L42.4799 30.0332ZM47.816 42.096C47.816 45.2935 46.9786 48.2992 45.2911 51.1299L47.0089 52.1541C48.8761 49.0221 49.816 45.6638 49.816 42.096H47.816ZM45.2955 51.1226C43.6338 53.8562 41.0676 56.1182 37.5328 57.8856L38.4272 59.6744C42.2311 57.7725 45.1115 55.2758 47.0045 52.1614L45.2955 51.1226ZM37.5328 57.8856C34.0463 59.6288 29.5121 60.532 23.876 60.532V62.532C29.7066 62.532 34.5751 61.6005 38.4272 59.6744L37.5328 57.8856Z" fill="#E71A95"/>
</svg>
