<svg width="57" height="61" viewBox="0 0 57 61" fill="none" xmlns="http://www.w3.org/2000/svg">
<path d="M0.666 47.858V38.484L29.046 0.299996H43.666L15.888 38.484L9.094 36.506H56.48V47.858H0.666ZM33.088 60.5V47.858L33.518 36.506V25.24H46.676V60.5H33.088Z" fill="#E71A95"/>
<path d="M0.666 47.858H-0.334V48.858H0.666V47.858ZM0.666 38.484L-0.136595 37.8875L-0.334 38.1531V38.484H0.666ZM29.046 0.299995V-0.700005H28.5433L28.2434 -0.296528L29.046 0.299995ZM43.666 0.299995L44.4747 0.888275L45.6301 -0.700005H43.666V0.299995ZM15.888 38.484L15.6085 39.4441L16.2832 39.6406L16.6967 39.0723L15.888 38.484ZM9.094 36.506V35.506L8.81447 37.4661L9.094 36.506ZM56.48 36.506H57.48V35.506H56.48V36.506ZM56.48 47.858V48.858H57.48V47.858H56.48ZM33.088 60.5H32.088V61.5H33.088V60.5ZM33.088 47.858L32.0887 47.8201L32.088 47.8391V47.858H33.088ZM33.518 36.506L34.5173 36.5438L34.518 36.5249V36.506H33.518ZM33.518 25.24V24.24H32.518V25.24H33.518ZM46.676 25.24H47.676V24.24H46.676V25.24ZM46.676 60.5V61.5H47.676V60.5H46.676ZM1.666 47.858V38.484H-0.334V47.858H1.666ZM1.4686 39.0805L29.8486 0.896519L28.2434 -0.296528L-0.136595 37.8875L1.4686 39.0805ZM29.046 1.3H43.666V-0.700005H29.046V1.3ZM42.8573 -0.288284L15.0793 37.8957L16.6967 39.0723L44.4747 0.888275L42.8573 -0.288284ZM16.1675 37.5239L9.37353 35.5459L8.81447 37.4661L15.6085 39.4441L16.1675 37.5239ZM9.094 37.506H56.48V35.506H9.094V37.506ZM55.48 36.506V47.858H57.48V36.506H55.48ZM56.48 46.858H0.666V48.858H56.48V46.858ZM34.088 60.5V47.858H32.088V60.5H34.088ZM34.0873 47.8959L34.5173 36.5438L32.5187 36.4681L32.0887 47.8201L34.0873 47.8959ZM34.518 36.506V25.24H32.518V36.506H34.518ZM33.518 26.24H46.676V24.24H33.518V26.24ZM45.676 25.24V60.5H47.676V25.24H45.676ZM46.676 59.5H33.088V61.5H46.676V59.5Z" fill="#E71A95"/>
</svg>
