<svg width="49" height="62" viewBox="0 0 49 62" fill="none" xmlns="http://www.w3.org/2000/svg">
<path d="M23.822 61.532C19.6367 61.532 15.48 60.9873 11.352 59.898C7.28133 58.7513 3.784 57.146 0.86 55.082L6.364 44.418C8.65733 46.0807 11.2947 47.3993 14.276 48.374C17.3147 49.3487 20.382 49.836 23.478 49.836C26.9753 49.836 29.7273 49.148 31.734 47.772C33.7407 46.396 34.744 44.4753 34.744 42.01C34.744 40.462 34.3427 39.086 33.54 37.882C32.7373 36.678 31.304 35.7607 29.24 35.13C27.2333 34.4993 24.3953 34.184 20.726 34.184H5.332L8.428 0.299996H45.15V11.48H13.416L20.64 5.116L18.49 29.282L11.266 22.918H23.994C29.9567 22.918 34.744 23.7493 38.356 25.412C42.0253 27.0173 44.6913 29.2247 46.354 32.034C48.0167 34.8433 48.848 38.0253 48.848 41.58C48.848 45.1347 47.9593 48.4313 46.182 51.47C44.4047 54.4513 41.6527 56.888 37.926 58.78C34.2567 60.6147 29.5553 61.532 23.822 61.532Z" fill="#E71A95"/>
<path d="M11.352 59.898L11.0809 60.8605L11.0888 60.8628L11.0968 60.8649L11.352 59.898ZM0.86 55.082L-0.0286206 54.6234L-0.427889 55.3969L0.283317 55.899L0.86 55.082ZM6.364 44.418L6.95097 43.6084L6.009 42.9255L5.47538 43.9594L6.364 44.418ZM14.276 48.374L13.9653 49.3245L13.9706 49.3262L14.276 48.374ZM31.734 47.772L32.2995 48.5967L31.734 47.772ZM29.24 35.13L28.9402 36.084L28.9478 36.0863L29.24 35.13ZM5.332 34.184L4.33615 34.093L4.23646 35.184H5.332V34.184ZM8.428 0.299995V-0.700005H7.51521L7.43215 0.209003L8.428 0.299995ZM45.15 0.299995H46.15V-0.700005H45.15V0.299995ZM45.15 11.48V12.48H46.15V11.48H45.15ZM13.416 11.48L12.755 10.7296L10.7681 12.48H13.416V11.48ZM20.64 5.116L21.6361 5.20461L21.858 2.71032L19.979 4.36564L20.64 5.116ZM18.49 29.282L17.829 30.0324L19.311 31.338L19.4861 29.3706L18.49 29.282ZM11.266 22.918V21.918H8.61808L10.605 23.6684L11.266 22.918ZM38.356 25.412L37.9379 26.3204L37.9465 26.3243L37.9552 26.3282L38.356 25.412ZM46.354 32.034L47.2146 31.5247L46.354 32.034ZM46.182 51.47L47.041 51.9821L47.0452 51.9749L46.182 51.47ZM37.926 58.78L38.3732 59.6744L38.3787 59.6717L37.926 58.78ZM23.822 60.532C19.7245 60.532 15.6536 59.9989 11.6072 58.9311L11.0968 60.8649C15.3064 61.9758 19.5488 62.532 23.822 62.532V60.532ZM11.6231 58.9355C7.64247 57.8141 4.25271 56.2528 1.43668 54.265L0.283317 55.899C3.31529 58.0392 6.9202 59.6885 11.0809 60.8605L11.6231 58.9355ZM1.74862 55.5406L7.25262 44.8766L5.47538 43.9594L-0.0286206 54.6234L1.74862 55.5406ZM5.77703 45.2276C8.16307 46.9575 10.8956 48.321 13.9653 49.3245L14.5867 47.4235C11.6937 46.4777 9.1516 45.2038 6.95097 43.6084L5.77703 45.2276ZM13.9706 49.3262C17.1049 50.3316 20.2752 50.836 23.478 50.836V48.836C20.4888 48.836 17.5244 48.3658 14.5814 47.4218L13.9706 49.3262ZM23.478 50.836C27.0928 50.836 30.0682 50.1268 32.2995 48.5967L31.1685 46.9473C29.3865 48.1692 26.8579 48.836 23.478 48.836V50.836ZM32.2995 48.5967C34.5824 47.0313 35.744 44.7998 35.744 42.01H33.744C33.744 44.1508 32.8989 45.7607 31.1685 46.9473L32.2995 48.5967ZM35.744 42.01C35.744 40.279 35.292 38.7072 34.3721 37.3273L32.708 38.4367C33.3934 39.4648 33.744 40.645 33.744 42.01H35.744ZM34.3721 37.3273C33.3915 35.8564 31.7126 34.8399 29.5322 34.1736L28.9478 36.0863C30.8954 36.6815 32.0832 37.4996 32.708 38.4367L34.3721 37.3273ZM29.5398 34.176C27.3899 33.5003 24.4333 33.184 20.726 33.184V35.184C24.3573 35.184 27.0768 35.4984 28.9402 36.084L29.5398 34.176ZM20.726 33.184H5.332V35.184H20.726V33.184ZM6.32785 34.275L9.42385 0.390987L7.43215 0.209003L4.33615 34.093L6.32785 34.275ZM8.428 1.3H45.15V-0.700005H8.428V1.3ZM44.15 0.299995V11.48H46.15V0.299995H44.15ZM45.15 10.48H13.416V12.48H45.15V10.48ZM14.077 12.2304L21.301 5.86635L19.979 4.36564L12.755 10.7296L14.077 12.2304ZM19.6439 5.02738L17.4939 29.1934L19.4861 29.3706L21.6361 5.20461L19.6439 5.02738ZM19.151 28.5316L11.927 22.1676L10.605 23.6684L17.829 30.0324L19.151 28.5316ZM11.266 23.918H23.994V21.918H11.266V23.918ZM23.994 23.918C29.878 23.918 34.5058 24.7406 37.9379 26.3204L38.7741 24.5036C34.9822 22.7581 30.0353 21.918 23.994 21.918V23.918ZM37.9552 26.3282C41.4767 27.8688 43.9598 29.952 45.4934 32.5433L47.2146 31.5247C45.4229 28.4973 42.574 26.1658 38.7568 24.4958L37.9552 26.3282ZM45.4934 32.5433C47.0568 35.1849 47.848 38.1881 47.848 41.58H49.848C49.848 37.8626 48.9765 34.5018 47.2146 31.5247L45.4934 32.5433ZM47.848 41.58C47.848 44.959 47.0056 48.0812 45.3188 50.9651L47.0452 51.9749C48.913 48.7815 49.848 45.3103 49.848 41.58H47.848ZM45.3231 50.9579C43.6607 53.7464 41.0661 56.0643 37.4733 57.8883L38.3787 59.6717C42.2392 57.7117 45.1486 55.1563 47.0409 51.9821L45.3231 50.9579ZM37.4788 57.8856C33.9923 59.6288 29.4581 60.532 23.822 60.532V62.532C29.6526 62.532 34.5211 61.6005 38.3732 59.6744L37.4788 57.8856Z" fill="#E71A95"/>
</svg>
